<svg width="48" height="49" viewBox="0 0 48 49" fill="none" xmlns="http://www.w3.org/2000/svg">
<g filter="url(#filter0_b_5079_108364)">
<rect y="0.878906" width="48" height="48" rx="24" fill="#8989EA" fill-opacity="0.05"/>
<g clip-path="url(#clip0_5079_108364)">
<path d="M33.6 6.87891H14.4C9.76081 6.87891 6 10.6397 6 15.2789V34.4789C6 39.1181 9.76081 42.8789 14.4 42.8789H33.6C38.2392 42.8789 42 39.1181 42 34.4789V15.2789C42 10.6397 38.2392 6.87891 33.6 6.87891Z" fill="#1C181B"/>
<path d="M13.2 14.9805H34.8C35.5161 14.9805 36.2028 15.2649 36.7092 15.7713C37.2155 16.2776 37.5 16.9644 37.5 17.6805V31.1805C37.5 33.3345 35.754 35.0805 33.6 35.0805H14.4C12.246 35.0805 10.5 33.3345 10.5 31.1805V17.6805C10.5 16.9644 10.7845 16.2776 11.2908 15.7713C11.7972 15.2649 12.4839 14.9805 13.2 14.9805Z" fill="#E5E3DD"/>
<mask id="mask0_5079_108364" style="mask-type:luminance" maskUnits="userSpaceOnUse" x="10" y="14" width="28" height="22">
<path d="M13.2 14.9805H34.8C35.5161 14.9805 36.2028 15.2649 36.7092 15.7713C37.2155 16.2776 37.5 16.9644 37.5 17.6805V31.1805C37.5 33.3345 35.754 35.0805 33.6 35.0805H14.4C12.246 35.0805 10.5 33.3345 10.5 31.1805V17.6805C10.5 16.9644 10.7845 16.2776 11.2908 15.7713C11.7972 15.2649 12.4839 14.9805 13.2 14.9805Z" fill="white"/>
</mask>
<g mask="url(#mask0_5079_108364)">
<g filter="url(#filter1_d_5079_108364)">
<path d="M13.1992 16.1797H34.7992C35.197 16.1797 35.5786 16.3377 35.8599 16.619C36.1412 16.9003 36.2992 17.2819 36.2992 17.6797V21.5797H11.6992V17.6797C11.6992 17.2819 11.8573 16.9003 12.1386 16.619C12.4199 16.3377 12.8014 16.1797 13.1992 16.1797Z" fill="black"/>
</g>
<path d="M13.1992 16.1797H34.7992C35.197 16.1797 35.5786 16.3377 35.8599 16.619C36.1412 16.9003 36.2992 17.2819 36.2992 17.6797V21.5797H11.6992V17.6797C11.6992 17.2819 11.8573 16.9003 12.1386 16.619C12.4199 16.3377 12.8014 16.1797 13.1992 16.1797Z" fill="#50BCD5"/>
</g>
<mask id="mask1_5079_108364" style="mask-type:luminance" maskUnits="userSpaceOnUse" x="10" y="14" width="28" height="22">
<path d="M13.2 14.9805H34.8C35.5161 14.9805 36.2028 15.2649 36.7092 15.7713C37.2155 16.2776 37.5 16.9644 37.5 17.6805V31.1805C37.5 33.3345 35.754 35.0805 33.6 35.0805H14.4C12.246 35.0805 10.5 33.3345 10.5 31.1805V17.6805C10.5 16.9644 10.7845 16.2776 11.2908 15.7713C11.7972 15.2649 12.4839 14.9805 13.2 14.9805Z" fill="white"/>
</mask>
<g mask="url(#mask1_5079_108364)">
<g filter="url(#filter2_d_5079_108364)">
<path d="M13.1992 18.2812H34.7992C35.197 18.2812 35.5786 18.4393 35.8599 18.7206C36.1412 19.0019 36.2992 19.3834 36.2992 19.7812V23.6813H11.6992V19.7812C11.6992 19.3834 11.8573 19.0019 12.1386 18.7206C12.4199 18.4393 12.8014 18.2813 13.1992 18.2812Z" fill="black"/>
</g>
<path d="M13.1992 18.2812H34.7992C35.197 18.2812 35.5786 18.4393 35.8599 18.7206C36.1412 19.0019 36.2992 19.3834 36.2992 19.7812V23.6813H11.6992V19.7812C11.6992 19.3834 11.8573 19.0019 12.1386 18.7206C12.4199 18.4393 12.8014 18.2813 13.1992 18.2812Z" fill="#FCC42C"/>
</g>
<mask id="mask2_5079_108364" style="mask-type:luminance" maskUnits="userSpaceOnUse" x="10" y="14" width="28" height="22">
<path d="M13.2 14.9805H34.8C35.5161 14.9805 36.2028 15.2649 36.7092 15.7713C37.2155 16.2776 37.5 16.9644 37.5 17.6805V31.1805C37.5 33.3345 35.754 35.0805 33.6 35.0805H14.4C12.246 35.0805 10.5 33.3345 10.5 31.1805V17.6805C10.5 16.9644 10.7845 16.2776 11.2908 15.7713C11.7972 15.2649 12.4839 14.9805 13.2 14.9805Z" fill="white"/>
</mask>
<g mask="url(#mask2_5079_108364)">
<g filter="url(#filter3_d_5079_108364)">
<path d="M13.1992 20.3789H34.7992C35.197 20.3789 35.5786 20.5369 35.8599 20.8182C36.1412 21.0996 36.2992 21.4811 36.2992 21.8789V25.7789H11.6992V21.8789C11.6992 21.4811 11.8573 21.0996 12.1386 20.8182C12.4199 20.5369 12.8014 20.3789 13.1992 20.3789Z" fill="black"/>
</g>
<path d="M13.1992 20.3789H34.7992C35.197 20.3789 35.5786 20.5369 35.8599 20.8182C36.1412 21.0996 36.2992 21.4811 36.2992 21.8789V25.7789H11.6992V21.8789C11.6992 21.4811 11.8573 21.0996 12.1386 20.8182C12.4199 20.5369 12.8014 20.3789 13.1992 20.3789Z" fill="#68D95E"/>
</g>
<mask id="mask3_5079_108364" style="mask-type:luminance" maskUnits="userSpaceOnUse" x="10" y="14" width="28" height="22">
<path d="M13.2 14.9805H34.8C35.5161 14.9805 36.2028 15.2649 36.7092 15.7713C37.2155 16.2776 37.5 16.9644 37.5 17.6805V31.1805C37.5 33.3345 35.754 35.0805 33.6 35.0805H14.4C12.246 35.0805 10.5 33.3345 10.5 31.1805V17.6805C10.5 16.9644 10.7845 16.2776 11.2908 15.7713C11.7972 15.2649 12.4839 14.9805 13.2 14.9805Z" fill="white"/>
</mask>
<g mask="url(#mask3_5079_108364)">
<g filter="url(#filter4_d_5079_108364)">
<path d="M13.1992 22.7812H34.7992C35.197 22.7813 35.5786 22.9393 35.8599 23.2206C36.1412 23.5019 36.2992 23.8834 36.2992 24.2812V29.3812H11.6992V24.2812C11.6992 23.8834 11.8573 23.5019 12.1386 23.2206C12.4199 22.9393 12.8014 22.7813 13.1992 22.7812Z" fill="black"/>
</g>
<path d="M13.1992 22.7812H34.7992C35.197 22.7813 35.5786 22.9393 35.8599 23.2206C36.1412 23.5019 36.2992 23.8834 36.2992 24.2812V29.3812H11.6992V24.2812C11.6992 23.8834 11.8573 23.5019 12.1386 23.2206C12.4199 22.9393 12.8014 22.7813 13.1992 22.7812Z" fill="#F47E7E"/>
</g>
<path fill-rule="evenodd" clip-rule="evenodd" d="M13.1996 15.5781C12.6427 15.5781 12.1085 15.7994 11.7147 16.1932C11.3209 16.587 11.0996 17.1212 11.0996 17.6781V31.1781C11.0996 33.0006 12.5771 34.4781 14.3996 34.4781H33.5996C35.4221 34.4781 36.8996 33.0006 36.8996 31.1781V17.6781C36.8996 17.1212 36.6784 16.587 36.2845 16.1932C35.8907 15.7994 35.3566 15.5781 34.7996 15.5781H13.1996Z" stroke="#E5E3DD" stroke-width="4"/>
<mask id="mask4_5079_108364" style="mask-type:luminance" maskUnits="userSpaceOnUse" x="10" y="14" width="28" height="22">
<path d="M13.2 14.9805H34.8C35.5161 14.9805 36.2028 15.2649 36.7092 15.7713C37.2155 16.2776 37.5 16.9644 37.5 17.6805V31.1805C37.5 33.3345 35.754 35.0805 33.6 35.0805H14.4C12.246 35.0805 10.5 33.3345 10.5 31.1805V17.6805C10.5 16.9644 10.7845 16.2776 11.2908 15.7713C11.7972 15.2649 12.4839 14.9805 13.2 14.9805Z" fill="white"/>
</mask>
<g mask="url(#mask4_5079_108364)">
<g filter="url(#filter5_d_5079_108364)">
<path d="M24.0742 28.4791C21.0085 28.4269 21.574 25.1797 18.4492 25.1797H10.1992V35.8297H37.9492V25.1797H29.6992C26.5744 25.1797 27.1399 28.4269 24.0742 28.4791Z" fill="black"/>
</g>
<path d="M24.0742 28.4791C21.0085 28.4269 21.574 25.1797 18.4492 25.1797H10.1992V35.8297H37.9492V25.1797H29.6992C26.5744 25.1797 27.1399 28.4269 24.0742 28.4791Z" fill="#E5E3DD"/>
</g>
</g>
</g>
<defs>
<filter id="filter0_b_5079_108364" x="-100" y="-99.1211" width="248" height="248" filterUnits="userSpaceOnUse" color-interpolation-filters="sRGB">
<feFlood flood-opacity="0" result="BackgroundImageFix"/>
<feGaussianBlur in="BackgroundImageFix" stdDeviation="50"/>
<feComposite in2="SourceAlpha" operator="in" result="effect1_backgroundBlur_5079_108364"/>
<feBlend mode="normal" in="SourceGraphic" in2="effect1_backgroundBlur_5079_108364" result="shape"/>
</filter>
<filter id="filter1_d_5079_108364" x="7.69922" y="10.1797" width="32.5996" height="13.3984" filterUnits="userSpaceOnUse" color-interpolation-filters="sRGB">
<feFlood flood-opacity="0" result="BackgroundImageFix"/>
<feColorMatrix in="SourceAlpha" type="matrix" values="0 0 0 0 0 0 0 0 0 0 0 0 0 0 0 0 0 0 127 0" result="hardAlpha"/>
<feOffset dy="-2"/>
<feGaussianBlur stdDeviation="2"/>
<feColorMatrix type="matrix" values="0 0 0 0 0 0 0 0 0 0 0 0 0 0 0 0 0 0 0.15 0"/>
<feBlend mode="normal" in2="BackgroundImageFix" result="effect1_dropShadow_5079_108364"/>
<feBlend mode="normal" in="SourceGraphic" in2="effect1_dropShadow_5079_108364" result="shape"/>
</filter>
<filter id="filter2_d_5079_108364" x="7.69922" y="12.2812" width="32.5996" height="13.3984" filterUnits="userSpaceOnUse" color-interpolation-filters="sRGB">
<feFlood flood-opacity="0" result="BackgroundImageFix"/>
<feColorMatrix in="SourceAlpha" type="matrix" values="0 0 0 0 0 0 0 0 0 0 0 0 0 0 0 0 0 0 127 0" result="hardAlpha"/>
<feOffset dy="-2"/>
<feGaussianBlur stdDeviation="2"/>
<feColorMatrix type="matrix" values="0 0 0 0 0 0 0 0 0 0 0 0 0 0 0 0 0 0 0.15 0"/>
<feBlend mode="normal" in2="BackgroundImageFix" result="effect1_dropShadow_5079_108364"/>
<feBlend mode="normal" in="SourceGraphic" in2="effect1_dropShadow_5079_108364" result="shape"/>
</filter>
<filter id="filter3_d_5079_108364" x="7.69922" y="14.3789" width="32.5996" height="13.3984" filterUnits="userSpaceOnUse" color-interpolation-filters="sRGB">
<feFlood flood-opacity="0" result="BackgroundImageFix"/>
<feColorMatrix in="SourceAlpha" type="matrix" values="0 0 0 0 0 0 0 0 0 0 0 0 0 0 0 0 0 0 127 0" result="hardAlpha"/>
<feOffset dy="-2"/>
<feGaussianBlur stdDeviation="2"/>
<feColorMatrix type="matrix" values="0 0 0 0 0 0 0 0 0 0 0 0 0 0 0 0 0 0 0.15 0"/>
<feBlend mode="normal" in2="BackgroundImageFix" result="effect1_dropShadow_5079_108364"/>
<feBlend mode="normal" in="SourceGraphic" in2="effect1_dropShadow_5079_108364" result="shape"/>
</filter>
<filter id="filter4_d_5079_108364" x="7.69922" y="16.7812" width="32.5996" height="14.6016" filterUnits="userSpaceOnUse" color-interpolation-filters="sRGB">
<feFlood flood-opacity="0" result="BackgroundImageFix"/>
<feColorMatrix in="SourceAlpha" type="matrix" values="0 0 0 0 0 0 0 0 0 0 0 0 0 0 0 0 0 0 127 0" result="hardAlpha"/>
<feOffset dy="-2"/>
<feGaussianBlur stdDeviation="2"/>
<feColorMatrix type="matrix" values="0 0 0 0 0 0 0 0 0 0 0 0 0 0 0 0 0 0 0.15 0"/>
<feBlend mode="normal" in2="BackgroundImageFix" result="effect1_dropShadow_5079_108364"/>
<feBlend mode="normal" in="SourceGraphic" in2="effect1_dropShadow_5079_108364" result="shape"/>
</filter>
<filter id="filter5_d_5079_108364" x="6.19922" y="19.1797" width="35.75" height="18.6484" filterUnits="userSpaceOnUse" color-interpolation-filters="sRGB">
<feFlood flood-opacity="0" result="BackgroundImageFix"/>
<feColorMatrix in="SourceAlpha" type="matrix" values="0 0 0 0 0 0 0 0 0 0 0 0 0 0 0 0 0 0 127 0" result="hardAlpha"/>
<feOffset dy="-2"/>
<feGaussianBlur stdDeviation="2"/>
<feColorMatrix type="matrix" values="0 0 0 0 0 0 0 0 0 0 0 0 0 0 0 0 0 0 0.102298 0"/>
<feBlend mode="normal" in2="BackgroundImageFix" result="effect1_dropShadow_5079_108364"/>
<feBlend mode="normal" in="SourceGraphic" in2="effect1_dropShadow_5079_108364" result="shape"/>
</filter>
<clipPath id="clip0_5079_108364">
<rect width="36" height="36" fill="white" transform="translate(6 6.87891)"/>
</clipPath>
</defs>
</svg>
