<svg width="12" height="7" viewBox="0 0 12 7" fill="none" xmlns="http://www.w3.org/2000/svg">
<path d="M5.99966 6.16175C5.87914 6.16175 5.76697 6.14252 5.66314 6.10405C5.55929 6.06558 5.46057 5.99956 5.36699 5.90597L0.872761 1.41175C0.734294 1.2733 0.663461 1.09927 0.660261 0.88965C0.657044 0.680033 0.727878 0.502791 0.872761 0.357924C1.01763 0.213057 1.19326 0.140625 1.39966 0.140625C1.60606 0.140625 1.78169 0.213057 1.92656 0.357924L5.99966 4.43102L10.0728 0.357924C10.2112 0.219474 10.3852 0.148641 10.5949 0.145424C10.8045 0.142224 10.9817 0.213057 11.1266 0.357924C11.2714 0.502791 11.3439 0.678433 11.3439 0.88485C11.3439 1.09125 11.2714 1.26688 11.1266 1.41175L6.63234 5.90597C6.53875 5.99956 6.44004 6.06558 6.33619 6.10405C6.23235 6.14252 6.12018 6.16175 5.99966 6.16175Z" fill="white"/>
</svg>
