<svg width="17" height="19" viewBox="0 0 17 19" fill="none" xmlns="http://www.w3.org/2000/svg">
<path d="M6.05765 15C5.55252 15 5.12496 14.825 4.77498 14.475C4.42498 14.125 4.24998 13.6974 4.24998 13.1923V1.8077C4.24998 1.30257 4.42498 0.875 4.77498 0.525C5.12496 0.175 5.55252 0 6.05765 0H14.4422C14.9473 0 15.3749 0.175 15.7249 0.525C16.0749 0.875 16.2499 1.30257 16.2499 1.8077V13.1923C16.2499 13.6974 16.0749 14.125 15.7249 14.475C15.3749 14.825 14.9473 15 14.4422 15H6.05765ZM6.05765 13.5H14.4422C14.5191 13.5 14.5897 13.4679 14.6538 13.4038C14.7179 13.3397 14.7499 13.2692 14.7499 13.1923V1.8077C14.7499 1.73077 14.7179 1.66024 14.6538 1.59613C14.5897 1.53203 14.5191 1.49998 14.4422 1.49998H6.05765C5.98072 1.49998 5.9102 1.53203 5.8461 1.59613C5.78198 1.66024 5.74993 1.73077 5.74993 1.8077V13.1923C5.74993 13.2692 5.78198 13.3397 5.8461 13.4038C5.9102 13.4679 5.98072 13.5 6.05765 13.5ZM2.55768 18.4999C2.05256 18.4999 1.625 18.3249 1.275 17.9749C0.925 17.6249 0.75 17.1973 0.75 16.6922V4.55768C0.75 4.34486 0.821792 4.16666 0.965375 4.02308C1.10898 3.87949 1.28718 3.8077 1.49998 3.8077C1.71279 3.8077 1.891 3.87949 2.0346 4.02308C2.17818 4.16666 2.24998 4.34486 2.24998 4.55768V16.6922C2.24998 16.7692 2.28203 16.8397 2.34613 16.9038C2.41024 16.9679 2.48076 17 2.55768 17H11.6922C11.905 17 12.0832 17.0717 12.2268 17.2153C12.3704 17.3589 12.4422 17.5371 12.4422 17.7499C12.4422 17.9627 12.3704 18.1409 12.2268 18.2845C12.0832 18.4281 11.905 18.4999 11.6922 18.4999H2.55768Z" fill="white"/>
</svg>
