<svg width="18" height="18" viewBox="0 0 18 18" fill="none" xmlns="http://www.w3.org/2000/svg">
<path d="M8.99998 13.7115C9.22883 13.7115 9.42065 13.6341 9.57545 13.4793C9.73025 13.3245 9.80765 13.1327 9.80765 12.9038C9.80765 12.675 9.73025 12.4832 9.57545 12.3284C9.42065 12.1735 9.22883 12.0961 8.99998 12.0961C8.77113 12.0961 8.5793 12.1735 8.4245 12.3284C8.2697 12.4832 8.1923 12.675 8.1923 12.9038C8.1923 13.1327 8.2697 13.3245 8.4245 13.4793C8.5793 13.6341 8.77113 13.7115 8.99998 13.7115ZM8.25 10.2308H9.74995V4.1923H8.25V10.2308ZM5.46153 17.5L0.5 12.543V5.46153L5.457 0.5H12.5384L17.5 5.457V12.5384L12.543 17.5H5.46153Z" fill="#381213"/>
</svg>
