<svg width="22" height="22" viewBox="0 0 22 22" fill="none" xmlns="http://www.w3.org/2000/svg">
<path d="M20.1506 1.89381C18.9444 0.669996 17.3363 0.000976562 15.6316 0.000976562H0V7.24597H15.5351C15.9371 7.24597 16.2749 6.90331 16.2749 6.49537C16.2749 6.08743 15.9371 5.74476 15.5351 5.74476H1.47953V1.50219H15.5833C18.3012 1.50219 20.5366 3.7377 20.5366 6.46273C20.5366 7.80077 20.038 9.04091 19.1053 9.98733C18.1725 10.9337 16.9342 11.4559 15.6316 11.4559H11.7558V17.1181C11.7558 18.7172 10.4854 20.0389 8.92544 20.0553C8.15351 20.0553 7.42982 19.7615 6.88304 19.2067C6.33626 18.652 6.0307 17.9177 6.0307 17.1507V11.1459H4.55117V17.1507C4.55117 18.3256 5.00146 19.4352 5.82164 20.2674C6.64181 21.0996 7.73538 21.5565 8.89327 21.5565H8.90936C11.2895 21.5565 13.2354 19.5494 13.2354 17.1018V12.9571H15.4868C17.3202 12.9571 18.9284 12.2881 20.1345 11.0643C21.3406 9.84047 22 8.20871 22 6.47905C22 4.74939 21.3567 3.11763 20.1506 1.89381Z" fill="url(#paint0_linear_1657_4283)"/>
<path d="M16.2754 6.47912C16.2754 6.07118 15.9377 5.72852 15.5356 5.72852H1.49613L0.0166016 7.22973H15.5356C15.9377 7.22973 16.2754 6.90338 16.2754 6.47912Z" fill="url(#paint1_linear_1657_4283)"/>
<path d="M11.7555 11.4721V17.1343C11.7555 18.7335 10.485 20.0552 8.92505 20.0715C8.15312 20.0715 7.42944 19.7778 6.88265 19.223C6.33587 18.6682 6.03031 17.9339 6.03031 17.167V11.1621H4.55078V17.167C4.55078 18.3418 5.00107 19.4514 5.82125 20.2836C6.64142 21.1158 7.73499 21.5727 8.89289 21.5727H8.90897C11.2891 21.5727 13.235 19.5657 13.235 17.118V12.9734L11.7555 11.4721Z" fill="url(#paint2_linear_1657_4283)"/>
<path d="M20.1506 1.89381C18.9444 0.669996 17.3363 0.000976562 15.6316 0.000976562H0L1.47953 1.50219H15.5833C18.3012 1.50219 20.5366 3.7377 20.5366 6.46273C20.5366 7.80077 20.038 9.04091 19.1053 9.98733C18.1725 10.9337 16.9342 11.4559 15.6316 11.4559H11.7719L13.2515 12.9571H15.6155C17.3202 12.9571 18.9284 12.2881 20.1345 11.0643C21.3406 9.84047 22 8.20871 22 6.47905C22 4.74939 21.3567 3.11763 20.1506 1.89381Z" fill="url(#paint3_linear_1657_4283)"/>
<defs>
<linearGradient id="paint0_linear_1657_4283" x1="-3.23085" y1="-5.36695" x2="10.2434" y2="7.91267" gradientUnits="userSpaceOnUse">
<stop stop-color="#37A9FF"/>
<stop offset="0.3664" stop-color="#A0F7FF"/>
</linearGradient>
<linearGradient id="paint1_linear_1657_4283" x1="2.02806" y1="0.494676" x2="7.68954" y2="6.07438" gradientUnits="userSpaceOnUse">
<stop offset="0.3464" stop-color="#126580"/>
<stop offset="0.5856" stop-color="#37A9FF"/>
<stop offset="0.8949" stop-color="#A0F7FF"/>
</linearGradient>
<linearGradient id="paint2_linear_1657_4283" x1="13.355" y1="7.68257" x2="9.0797" y2="14.3038" gradientUnits="userSpaceOnUse">
<stop offset="0.4482" stop-color="#126580"/>
<stop offset="0.5856" stop-color="#37A9FF"/>
<stop offset="0.8949" stop-color="#A0F7FF"/>
</linearGradient>
<linearGradient id="paint3_linear_1657_4283" x1="0.426057" y1="-8.83666" x2="13.5282" y2="4.07624" gradientUnits="userSpaceOnUse">
<stop offset="0.3464" stop-color="#126580"/>
<stop offset="0.5856" stop-color="#37A9FF"/>
<stop offset="0.8949" stop-color="#A0F7FF"/>
</linearGradient>
</defs>
</svg>
