<svg width="56" height="56" viewBox="0 0 56 56" fill="none" xmlns="http://www.w3.org/2000/svg">
<g clip-path="url(#clip0_3428_16116)">
<g filter="url(#filter0_d_3428_16116)">
<path d="M33.5209 37.4556L27.302 43.6745C25.2303 45.7462 22.7344 46.7821 19.8142 46.7823C16.8941 46.7825 14.3983 45.7469 12.3268 43.6754C10.2554 41.604 9.21945 39.1079 9.21904 36.1871C9.21862 33.2664 10.2543 30.7702 12.326 28.6985L18.5448 22.4796L21.0196 24.9544L14.8007 31.1733C13.4152 32.5588 12.7225 34.2298 12.7225 36.1865C12.7225 38.1431 13.4152 39.8142 14.8007 41.1997C16.1863 42.5852 17.8573 43.278 19.814 43.278C21.7706 43.278 23.4417 42.5852 24.8272 41.1997L31.0461 34.9808L33.5209 37.4556ZM23.0503 35.4249L20.5755 32.9501L32.9498 20.5758L35.4246 23.0506L23.0503 35.4249ZM37.4553 33.5212L34.9805 31.0464L41.1994 24.8275C42.5849 23.442 43.2777 21.7709 43.2777 19.8143C43.2777 17.8576 42.5849 16.1866 41.1994 14.8011C39.8139 13.4155 38.1428 12.7228 36.1862 12.7228C34.2295 12.7228 32.5585 13.4155 31.1729 14.8011L24.9541 21.0199L22.4793 18.5451L28.6982 12.3263C30.7698 10.2546 33.2658 9.21863 36.1859 9.21844C39.1061 9.21825 41.6019 10.2539 43.6733 12.3253C45.7448 14.3968 46.7807 16.8929 46.7811 19.8136C46.7815 22.7344 45.7459 25.2306 43.6742 27.3023L37.4553 33.5212Z" fill="#A1F7FF"/>
</g>
</g>
<defs>
<filter id="filter0_d_3428_16116" x="-5.38125" y="-5.38125" width="66.7625" height="66.7635" filterUnits="userSpaceOnUse" color-interpolation-filters="sRGB">
<feFlood flood-opacity="0" result="BackgroundImageFix"/>
<feColorMatrix in="SourceAlpha" type="matrix" values="0 0 0 0 0 0 0 0 0 0 0 0 0 0 0 0 0 0 127 0" result="hardAlpha"/>
<feMorphology radius="4" operator="dilate" in="SourceAlpha" result="effect1_dropShadow_3428_16116"/>
<feOffset/>
<feGaussianBlur stdDeviation="5.3"/>
<feComposite in2="hardAlpha" operator="out"/>
<feColorMatrix type="matrix" values="0 0 0 0 0 0 0 0 0 0.46 0 0 0 0 1 0 0 0 1 0"/>
<feBlend mode="normal" in2="BackgroundImageFix" result="effect1_dropShadow_3428_16116"/>
<feBlend mode="normal" in="SourceGraphic" in2="effect1_dropShadow_3428_16116" result="shape"/>
</filter>
<clipPath id="clip0_3428_16116">
<rect width="56" height="56" fill="white"/>
</clipPath>
</defs>
</svg>
