<svg width="184" height="184" viewBox="0 0 184 184" fill="none" xmlns="http://www.w3.org/2000/svg">
<g filter="url(#filter0_f_4024_17419)">
<path fill-rule="evenodd" clip-rule="evenodd" d="M91.7104 166.999C91.6746 166.999 91.6387 166.999 91.6029 166.999C91.5561 167 91.5092 167 91.4622 167C91.3626 167 91.2634 166.998 91.1646 166.995C74.1093 166.805 57.6182 160.807 44.4206 149.976C31.0076 138.968 21.8264 123.65 18.4412 106.632C15.0561 89.6135 17.6765 71.948 25.856 56.6453C34.0355 41.3425 47.268 29.3492 63.2988 22.7091C79.3296 16.0689 97.1669 15.1926 113.771 20.2295C130.376 25.2664 144.72 35.9049 154.36 50.3322C164 64.7596 168.34 82.0832 166.639 99.3513C165.037 115.615 158.17 130.882 147.126 142.853C145.437 145.376 142.568 147.036 139.312 147.036C134.115 147.036 129.903 142.808 129.903 137.593C129.903 135.431 130.627 133.438 131.846 131.846L131.775 131.775C140.977 122.573 146.703 110.465 147.979 97.5135C149.255 84.5624 146 71.5697 138.77 60.7492C131.54 49.9287 120.782 41.9498 108.328 38.1721C95.8751 34.3944 82.4972 35.0517 70.4741 40.0318C58.451 45.0119 48.5266 54.0069 42.392 65.4839C36.2574 76.961 34.2921 90.2102 36.8309 102.974C39.3698 115.738 46.2557 127.226 56.3154 135.482C65.8782 143.33 77.7466 147.795 90.0747 148.217C90.5275 148.15 90.9908 148.115 91.4622 148.115C96.6584 148.115 100.871 152.343 100.871 157.558C100.871 162.591 96.946 166.705 92 166.985V167C91.9035 167 91.8069 167 91.7104 166.999Z" fill="url(#paint0_angular_4024_17419)"/>
</g>
<path fill-rule="evenodd" clip-rule="evenodd" d="M91.7104 166.999C91.6746 166.999 91.6387 166.999 91.6029 166.999C91.5561 167 91.5092 167 91.4622 167C91.3626 167 91.2634 166.998 91.1646 166.995C74.1093 166.805 57.6182 160.807 44.4206 149.976C31.0076 138.968 21.8264 123.65 18.4412 106.632C15.0561 89.6135 17.6765 71.948 25.856 56.6453C34.0355 41.3425 47.268 29.3492 63.2988 22.7091C79.3296 16.0689 97.1669 15.1926 113.771 20.2295C130.376 25.2664 144.72 35.9049 154.36 50.3322C164 64.7596 168.34 82.0832 166.639 99.3513C165.037 115.615 158.17 130.882 147.126 142.853C145.437 145.376 142.568 147.036 139.312 147.036C134.115 147.036 129.903 142.808 129.903 137.593C129.903 135.431 130.627 133.438 131.846 131.846L131.775 131.775C140.977 122.573 146.703 110.465 147.979 97.5135C149.255 84.5624 146 71.5697 138.77 60.7492C131.54 49.9287 120.782 41.9498 108.328 38.1721C95.8751 34.3944 82.4972 35.0517 70.4741 40.0318C58.451 45.0119 48.5266 54.0069 42.392 65.4839C36.2574 76.961 34.2921 90.2102 36.8309 102.974C39.3698 115.738 46.2557 127.226 56.3154 135.482C65.8782 143.33 77.7466 147.795 90.0747 148.217C90.5275 148.15 90.9908 148.115 91.4622 148.115C96.6584 148.115 100.871 152.343 100.871 157.558C100.871 162.591 96.946 166.705 92 166.985V167C91.9035 167 91.8069 167 91.7104 166.999Z" fill="url(#paint1_angular_4024_17419)"/>
<mask id="path-3-inside-1_4024_17419" fill="white">
<path fill-rule="evenodd" clip-rule="evenodd" d="M91.7104 166.999C91.6746 166.999 91.6387 166.999 91.6029 166.999C91.5561 167 91.5092 167 91.4622 167C91.3626 167 91.2634 166.998 91.1646 166.995C74.1093 166.805 57.6182 160.807 44.4206 149.976C31.0076 138.968 21.8264 123.65 18.4412 106.632C15.0561 89.6135 17.6765 71.948 25.856 56.6453C34.0355 41.3425 47.268 29.3492 63.2988 22.7091C79.3296 16.0689 97.1669 15.1926 113.771 20.2295C130.376 25.2664 144.72 35.9049 154.36 50.3322C164 64.7596 168.34 82.0832 166.639 99.3513C165.037 115.615 158.17 130.882 147.126 142.853C145.437 145.376 142.568 147.036 139.312 147.036C134.115 147.036 129.903 142.808 129.903 137.593C129.903 135.431 130.627 133.438 131.846 131.846L131.775 131.775C140.977 122.573 146.703 110.465 147.979 97.5135C149.255 84.5624 146 71.5697 138.77 60.7492C131.54 49.9287 120.782 41.9498 108.328 38.1721C95.8751 34.3944 82.4972 35.0517 70.4741 40.0318C58.451 45.0119 48.5266 54.0069 42.392 65.4839C36.2574 76.961 34.2921 90.2102 36.8309 102.974C39.3698 115.738 46.2557 127.226 56.3154 135.482C65.8782 143.33 77.7466 147.795 90.0747 148.217C90.5275 148.15 90.9908 148.115 91.4622 148.115C96.6584 148.115 100.871 152.343 100.871 157.558C100.871 162.591 96.946 166.705 92 166.985V167C91.9035 167 91.8069 167 91.7104 166.999Z"/>
</mask>
<path d="M91.6029 166.999L91.608 165.999L91.5982 165.999L91.5883 165.999L91.6029 166.999ZM91.7104 166.999L91.7144 165.999H91.7142L91.7104 166.999ZM91.1646 166.995L91.1957 165.996L91.1857 165.995L91.1757 165.995L91.1646 166.995ZM44.4206 149.976L45.055 149.203L44.4206 149.976ZM18.4412 106.632L19.422 106.437L18.4412 106.632ZM25.856 56.6453L24.9741 56.1739L25.856 56.6453ZM63.2988 22.7091L63.6815 23.6329L63.2988 22.7091ZM113.771 20.2295L113.481 21.1864L113.771 20.2295ZM154.36 50.3322L155.192 49.7767L154.36 50.3322ZM166.639 99.3513L165.644 99.2533L166.639 99.3513ZM147.126 142.853L146.391 142.175L146.339 142.232L146.296 142.297L147.126 142.853ZM131.846 131.846L132.64 132.454L133.173 131.758L132.553 131.139L131.846 131.846ZM131.775 131.775L131.068 131.068L130.36 131.775L131.068 132.482L131.775 131.775ZM147.979 97.5135L148.974 97.6115V97.6115L147.979 97.5135ZM108.328 38.1721L108.038 39.1291L108.328 38.1721ZM70.4741 40.0318L70.0914 39.1079L70.4741 40.0318ZM42.392 65.4839L41.5101 65.0125L42.392 65.4839ZM36.8309 102.974L35.8501 103.169L36.8309 102.974ZM56.3154 135.482L56.9498 134.709L56.3154 135.482ZM90.0747 148.217L90.0405 149.216L90.1314 149.22L90.2214 149.206L90.0747 148.217ZM92 166.985L91.9435 165.986L91 166.04V166.985H92ZM92 167V168H93V167H92ZM91.5978 167.999C91.6339 167.999 91.6702 167.999 91.7066 167.999L91.7142 165.999C91.679 165.999 91.6436 165.999 91.608 165.999L91.5978 167.999ZM91.4622 168C91.5142 168 91.566 168 91.6176 167.999L91.5883 165.999C91.5462 166 91.5042 166 91.4622 166V168ZM91.1334 167.995C91.2426 167.998 91.3522 168 91.4622 168V166C91.373 166 91.2842 165.999 91.1957 165.996L91.1334 167.995ZM43.7862 150.749C57.1598 161.724 73.8707 167.803 91.1534 167.995L91.1757 165.995C74.3478 165.808 58.0766 159.889 45.055 149.203L43.7862 150.749ZM17.4604 106.827C20.8907 124.072 30.1944 139.594 43.7862 150.749L45.055 149.203C31.8208 138.342 22.762 123.228 19.422 106.437L17.4604 106.827ZM24.9741 56.1739C16.6855 71.6807 14.0302 89.5817 17.4604 106.827L19.422 106.437C16.082 89.6454 18.6675 72.2154 26.7379 57.1166L24.9741 56.1739ZM62.9161 21.7852C46.6716 28.5139 33.2626 40.667 24.9741 56.1739L26.7379 57.1166C34.8084 42.0179 47.8644 30.1846 63.6815 23.6329L62.9161 21.7852ZM114.062 19.2726C97.2358 14.1685 79.1607 15.0565 62.9161 21.7852L63.6815 23.6329C79.4985 17.0813 97.098 16.2167 113.481 21.1864L114.062 19.2726ZM155.192 49.7767C145.423 35.1569 130.887 24.3766 114.062 19.2726L113.481 21.1864C129.864 26.1562 144.017 36.6528 153.529 50.8878L155.192 49.7767ZM167.634 99.4493C169.357 81.951 164.96 64.3964 155.192 49.7767L153.529 50.8878C163.04 65.1228 167.322 82.2154 165.644 99.2533L167.634 99.4493ZM147.861 143.531C159.053 131.4 166.011 115.93 167.634 99.4493L165.644 99.2533C164.063 115.3 157.288 130.363 146.391 142.175L147.861 143.531ZM146.296 142.297C144.784 144.555 142.219 146.036 139.312 146.036V148.036C142.916 148.036 146.091 146.197 147.957 143.41L146.296 142.297ZM139.312 146.036C134.671 146.036 130.903 142.26 130.903 137.593H128.903C128.903 143.357 133.56 148.036 139.312 148.036V146.036ZM130.903 137.593C130.903 135.658 131.551 133.877 132.64 132.454L131.052 131.238C129.704 132.999 128.903 135.204 128.903 137.593H130.903ZM131.068 132.482L131.139 132.553L132.553 131.139L132.482 131.068L131.068 132.482ZM146.984 97.4155C145.731 110.136 140.106 122.029 131.068 131.068L132.482 132.482C141.847 123.116 147.676 110.793 148.974 97.6115L146.984 97.4155ZM137.939 61.3048C145.04 71.9329 148.237 84.6946 146.984 97.4155L148.974 97.6115C150.272 84.4302 146.96 71.2065 139.602 60.1936L137.939 61.3048ZM108.038 39.1291C120.27 42.8396 130.837 50.6766 137.939 61.3048L139.602 60.1936C132.243 49.1807 121.294 41.06 108.619 37.2152L108.038 39.1291ZM70.8568 40.9557C82.6661 36.0641 95.8063 35.4185 108.038 39.1291L108.619 37.2152C95.944 33.3703 82.3283 34.0392 70.0914 39.1079L70.8568 40.9557ZM43.2739 65.9553C49.2995 54.6823 59.0474 45.8473 70.8568 40.9557L70.0914 39.1079C57.8546 44.1766 47.7538 53.3314 41.5101 65.0125L43.2739 65.9553ZM37.8117 102.779C35.318 90.242 37.2484 77.2284 43.2739 65.9553L41.5101 65.0125C35.2664 76.6937 33.2661 90.1783 35.8501 103.169L37.8117 102.779ZM56.9498 134.709C47.0689 126.6 40.3054 115.316 37.8117 102.779L35.8501 103.169C38.4341 116.16 45.4425 127.852 55.681 136.255L56.9498 134.709ZM90.1089 147.218C78 146.803 66.3426 142.417 56.9498 134.709L55.681 136.255C65.4139 144.242 77.4932 148.787 90.0405 149.216L90.1089 147.218ZM91.4622 147.115C90.9415 147.115 90.4292 147.154 89.9279 147.228L90.2214 149.206C90.6258 149.146 91.04 149.115 91.4622 149.115V147.115ZM101.871 157.558C101.871 151.794 97.2141 147.115 91.4622 147.115V149.115C96.1027 149.115 99.8708 152.892 99.8708 157.558H101.871ZM92.0565 167.983C97.532 167.674 101.871 163.122 101.871 157.558H99.8708C99.8708 162.061 96.3599 165.737 91.9435 165.986L92.0565 167.983ZM93 167V166.985H91V167H93ZM91.7065 167.999C91.8043 168 91.9022 168 92 168V166C91.9047 166 91.8095 166 91.7144 165.999L91.7065 167.999Z" fill="url(#paint2_angular_4024_17419)" mask="url(#path-3-inside-1_4024_17419)"/>
<defs>
<filter id="filter0_f_4024_17419" x="0" y="0" width="184" height="184" filterUnits="userSpaceOnUse" color-interpolation-filters="sRGB">
<feFlood flood-opacity="0" result="BackgroundImageFix"/>
<feBlend mode="normal" in="SourceGraphic" in2="BackgroundImageFix" result="shape"/>
<feGaussianBlur stdDeviation="8.5" result="effect1_foregroundBlur_4024_17419"/>
</filter>
<radialGradient id="paint0_angular_4024_17419" cx="0" cy="0" r="1" gradientUnits="userSpaceOnUse" gradientTransform="translate(92 92) rotate(90) scale(75)">
<stop offset="0.916943" stop-color="#00457D" stop-opacity="0"/>
<stop offset="0.956477" stop-color="#00457D"/>
</radialGradient>
<radialGradient id="paint1_angular_4024_17419" cx="0" cy="0" r="1" gradientUnits="userSpaceOnUse" gradientTransform="translate(92 92) rotate(90) scale(75)">
<stop offset="0.916943" stop-color="#00457D" stop-opacity="0"/>
<stop offset="0.956477" stop-color="#00457D"/>
</radialGradient>
<radialGradient id="paint2_angular_4024_17419" cx="0" cy="0" r="1" gradientUnits="userSpaceOnUse" gradientTransform="translate(92 92) rotate(90) scale(75)">
<stop stop-color="white"/>
<stop offset="0.895413" stop-color="white" stop-opacity="0"/>
</radialGradient>
</defs>
</svg>
