<svg width="56" height="56" viewBox="0 0 56 56" fill="none" xmlns="http://www.w3.org/2000/svg">
<g filter="url(#filter0_d_2414_28182)">
<path d="M10.051 45.4999C8.87233 45.4999 7.87467 45.0916 7.05801 44.2749C6.24134 43.4582 5.83301 42.4606 5.83301 41.2819V14.718C5.83301 13.5393 6.24134 12.5417 7.05801 11.725C7.87467 10.9083 8.87233 10.5 10.051 10.5H45.9483C47.1269 10.5 48.1246 10.9083 48.9412 11.725C49.7579 12.5417 50.1662 13.5393 50.1662 14.718V41.2819C50.1662 42.4606 49.7579 43.4582 48.9412 44.2749C48.1246 45.0916 47.1269 45.4999 45.9483 45.4999H10.051ZM27.9996 29.3011L9.33295 17.3653V41.2819C9.33295 41.4913 9.40027 41.6634 9.5349 41.798C9.66953 41.9326 9.84156 41.9999 10.051 41.9999H45.9483C46.1577 41.9999 46.3297 41.9326 46.4643 41.798C46.599 41.6634 46.6663 41.4913 46.6663 41.2819V17.3653L27.9996 29.3011ZM27.9996 25.6666L46.3073 13.9999H9.69193L27.9996 25.6666ZM9.33295 17.3653V13.9999V41.2819C9.33295 41.4913 9.40027 41.6634 9.5349 41.798C9.66953 41.9326 9.84156 41.9999 10.051 41.9999H9.33295V17.3653Z" fill="#A1F7FF"/>
</g>
<defs>
<filter id="filter0_d_2414_28182" x="-8.76699" y="-4.1" width="73.533" height="64.2" filterUnits="userSpaceOnUse" color-interpolation-filters="sRGB">
<feFlood flood-opacity="0" result="BackgroundImageFix"/>
<feColorMatrix in="SourceAlpha" type="matrix" values="0 0 0 0 0 0 0 0 0 0 0 0 0 0 0 0 0 0 127 0" result="hardAlpha"/>
<feMorphology radius="4" operator="dilate" in="SourceAlpha" result="effect1_dropShadow_2414_28182"/>
<feOffset/>
<feGaussianBlur stdDeviation="5.3"/>
<feComposite in2="hardAlpha" operator="out"/>
<feColorMatrix type="matrix" values="0 0 0 0 0 0 0 0 0 0.46 0 0 0 0 1 0 0 0 1 0"/>
<feBlend mode="normal" in2="BackgroundImageFix" result="effect1_dropShadow_2414_28182"/>
<feBlend mode="normal" in="SourceGraphic" in2="effect1_dropShadow_2414_28182" result="shape"/>
</filter>
</defs>
</svg>
