<svg width="16" height="20" viewBox="0 0 16 20" fill="none" xmlns="http://www.w3.org/2000/svg">
<path d="M1.25 16.3846C1.0375 16.3846 0.859375 16.3127 0.715625 16.1689C0.571875 16.0251 0.5 15.8469 0.5 15.6343C0.5 15.4217 0.571875 15.2436 0.715625 15.1C0.859375 14.9564 1.0375 14.8846 1.25 14.8846H2.3077V7.42305C2.3077 6.07818 2.72276 4.88908 3.55287 3.85575C4.38301 2.82242 5.44872 2.16153 6.75 1.87308V1.25C6.75 0.902783 6.87142 0.607651 7.11425 0.364601C7.35708 0.121534 7.65195 0 7.99885 0C8.34575 0 8.64099 0.121534 8.88457 0.364601C9.12816 0.607651 9.24995 0.902783 9.24995 1.25V1.87308C10.5512 2.16153 11.6169 2.82242 12.4471 3.85575C13.2772 4.88908 13.6922 6.07818 13.6922 7.42305V14.8846H14.75C14.9625 14.8846 15.1406 14.9565 15.2843 15.1003C15.4281 15.2441 15.5 15.4223 15.5 15.6349C15.5 15.8475 15.4281 16.0256 15.2843 16.1692C15.1406 16.3128 14.9625 16.3846 14.75 16.3846H1.25ZM7.99828 19.1923C7.50069 19.1923 7.0753 19.0153 6.7221 18.6613C6.3689 18.3073 6.1923 17.8817 6.1923 17.3846H9.80765C9.80765 17.8833 9.63048 18.3093 9.27615 18.6625C8.92182 19.0157 8.49586 19.1923 7.99828 19.1923ZM3.80765 14.8846H12.1923V7.42305C12.1923 6.26535 11.783 5.27721 10.9644 4.45863C10.1458 3.64003 9.15767 3.23073 7.99997 3.23073C6.84228 3.23073 5.85413 3.64003 5.03555 4.45863C4.21695 5.27721 3.80765 6.26535 3.80765 7.42305V14.8846Z" fill="white"/>
</svg>
