<svg width="32" height="31" viewBox="0 0 32 31" fill="none" xmlns="http://www.w3.org/2000/svg">
<mask id="mask0_3746_16075" style="mask-type:luminance" maskUnits="userSpaceOnUse" x="0" y="0" width="32" height="31">
<path d="M0 0V10.4004H22.5806C23.1754 10.4004 23.6573 9.91467 23.6573 9.31988C23.6573 8.72508 23.1754 8.23941 22.5806 8.23941H2.15551V2.16094H22.6488C26.6059 2.16094 29.836 5.36385 29.8466 9.30062C29.8509 11.2134 29.1111 13.0149 27.7615 14.3735C26.4119 15.7321 24.6188 16.481 22.7106 16.481H17.0905V24.6219C17.0905 26.9241 15.2442 28.8133 12.9778 28.8368C11.8585 28.8433 10.8095 28.4175 10.0143 27.6301C9.219 26.8406 8.78193 25.788 8.78193 24.669V16.0381H6.62856V24.669C6.62856 26.3592 7.28736 27.9511 8.48344 29.1492C9.67526 30.3431 11.2572 30.9999 12.9352 30.9999H12.9544C16.4232 30.9914 19.2439 28.1201 19.2439 24.6027V18.644H22.523C25.1924 18.644 27.5248 17.6748 29.2795 15.914C31.0342 14.1531 32 11.8125 32 9.32416C32 6.83586 31.0342 4.49305 29.2795 2.73434C27.5248 0.973495 25.1924 0.00427838 22.7128 0.00427838H0.00426339L0 0Z" fill="white"/>
</mask>
<g mask="url(#mask0_3746_16075)">
<path d="M15.9931 -16.0538L-15.4492 15.499L15.9931 47.0519L47.4354 15.499L15.9931 -16.0538Z" fill="url(#paint0_linear_3746_16075)"/>
</g>
<mask id="mask1_3746_16075" style="mask-type:luminance" maskUnits="userSpaceOnUse" x="0" y="8" width="24" height="3">
<path d="M2.19244 8.23926L0.0390625 10.4002H22.5813C23.174 10.4002 23.658 9.91452 23.658 9.31973C23.658 8.72493 23.174 8.23926 22.5813 8.23926H2.19244Z" fill="white"/>
</mask>
<g mask="url(#mask1_3746_16075)">
<path d="M11.8478 -3.61285L-1.03906 9.31934L11.8478 22.2515L24.7347 9.31933L11.8478 -3.61285Z" fill="url(#paint1_linear_3746_16075)"/>
</g>
<mask id="mask2_3746_16075" style="mask-type:luminance" maskUnits="userSpaceOnUse" x="6" y="16" width="14" height="15">
<path d="M6.62695 16.0381V24.669C6.62695 26.3593 7.28576 27.9511 8.48184 29.1492C9.67366 30.3431 11.2556 31 12.9336 31H12.9528C16.4216 30.9914 19.2423 28.1201 19.2423 24.6027V18.6441L17.0889 16.4831V24.6241C17.0889 26.9263 15.2426 28.8155 12.9762 28.839C11.8569 28.8476 10.8079 28.4218 10.0127 27.6323C9.2174 26.8428 8.78033 25.7902 8.78033 24.6712V16.0402H6.62695V16.0381Z" fill="white"/>
</mask>
<g mask="url(#mask2_3746_16075)">
<path d="M10.2635 10.3026L-0.125 26.6855L15.6069 36.7315L25.9954 20.3486L10.2635 10.3026Z" fill="url(#paint2_linear_3746_16075)"/>
</g>
<mask id="mask3_3746_16075" style="mask-type:luminance" maskUnits="userSpaceOnUse" x="0" y="0" width="32" height="19">
<path d="M0.00213088 0L2.15551 2.16094H22.6445C26.6016 2.16094 29.8317 5.36385 29.8424 9.30062C29.8488 11.2134 29.1068 13.0149 27.7572 14.3735C26.4076 15.7321 24.6146 16.481 22.7064 16.481H17.1183L19.2716 18.6419H22.7064C25.1881 18.6419 27.5206 17.6727 29.2731 15.9118C31.0278 14.151 31.9936 11.8103 31.9936 9.32202C31.9936 6.83372 31.0278 4.49091 29.2731 2.7322C27.5184 0.971355 25.186 0.00214001 22.7064 0.00214001H0L0.00213088 0Z" fill="white"/>
</mask>
<g mask="url(#mask3_3746_16075)">
<path d="M16.0001 -16.0549L-9.28516 9.31934L16.0001 34.6935L41.2854 9.31934L16.0001 -16.0549Z" fill="url(#paint3_linear_3746_16075)"/>
</g>
<defs>
<linearGradient id="paint0_linear_3746_16075" x1="-5.66798" y1="-6.75256" x2="13.6969" y2="12.5445" gradientUnits="userSpaceOnUse">
<stop stop-color="#37A9FF"/>
<stop offset="0.37" stop-color="#A0F7FF"/>
<stop offset="1" stop-color="#A0F7FF"/>
</linearGradient>
<linearGradient id="paint1_linear_3746_16075" x1="3.23438" y1="0.293344" x2="11.3707" y2="8.40111" gradientUnits="userSpaceOnUse">
<stop stop-color="#126580"/>
<stop offset="0.35" stop-color="#126580"/>
<stop offset="0.59" stop-color="#37A9FF"/>
<stop offset="0.89" stop-color="#A0F7FF"/>
<stop offset="1" stop-color="#A0F7FF"/>
</linearGradient>
<linearGradient id="paint2_linear_3746_16075" x1="20.6997" y1="11.7796" x2="14.5845" y2="21.356" gradientUnits="userSpaceOnUse">
<stop stop-color="#126580"/>
<stop offset="0.45" stop-color="#126580"/>
<stop offset="0.59" stop-color="#37A9FF"/>
<stop offset="0.89" stop-color="#A0F7FF"/>
<stop offset="1" stop-color="#A0F7FF"/>
</linearGradient>
<linearGradient id="paint3_linear_3746_16075" x1="-2.69993" y1="-9.34381" x2="16.1309" y2="9.42105" gradientUnits="userSpaceOnUse">
<stop stop-color="#126580"/>
<stop offset="0.35" stop-color="#126580"/>
<stop offset="0.59" stop-color="#37A9FF"/>
<stop offset="0.89" stop-color="#A0F7FF"/>
<stop offset="1" stop-color="#A0F7FF"/>
</linearGradient>
</defs>
</svg>
