<svg width="25" height="24" viewBox="0 0 25 24" fill="none" xmlns="http://www.w3.org/2000/svg">
<mask id="path-1-inside-1_4335_15492" fill="white">
<path d="M22.8402 10.6433L22.8327 10.64L2.81328 2.33661C2.6449 2.26613 2.46167 2.23849 2.27999 2.25616C2.09831 2.27383 1.92384 2.33626 1.77219 2.43786C1.61197 2.54285 1.48036 2.68602 1.38921 2.85449C1.29805 3.02297 1.25022 3.21146 1.25 3.40302V8.71349C1.25009 8.97535 1.34153 9.22899 1.50856 9.43067C1.67558 9.63235 1.90774 9.76945 2.165 9.81833L13.0836 11.8372C13.1265 11.8454 13.1652 11.8682 13.1931 11.9019C13.2209 11.9355 13.2362 11.9778 13.2362 12.0215C13.2362 12.0651 13.2209 12.1074 13.1931 12.1411C13.1652 12.1747 13.1265 12.1975 13.0836 12.2057L2.16547 14.2246C1.90828 14.2733 1.67614 14.4103 1.50903 14.6118C1.34193 14.8132 1.25033 15.0667 1.25 15.3285V20.6399C1.24988 20.8228 1.29517 21.0029 1.38181 21.164C1.46845 21.3251 1.59373 21.4621 1.74641 21.5629C1.93006 21.6849 2.1456 21.7501 2.36609 21.7504C2.51938 21.7502 2.6711 21.7195 2.81234 21.6599L22.8313 13.4038L22.8402 13.3996C23.1096 13.2838 23.3392 13.0915 23.5006 12.8466C23.6619 12.6016 23.7479 12.3148 23.7479 12.0215C23.7479 11.7282 23.6619 11.4413 23.5006 11.1963C23.3392 10.9514 23.1096 10.7591 22.8402 10.6433Z"/>
</mask>
<path d="M22.8402 10.6433L22.4393 11.5595L22.4453 11.5621L22.8402 10.6433ZM22.8327 10.64L23.2335 9.7239L23.2247 9.72004L23.2158 9.71635L22.8327 10.64ZM2.81328 2.33661L2.42718 3.25907L2.43016 3.26031L2.81328 2.33661ZM1.77219 2.43786L2.32029 3.27434L2.32879 3.26864L1.77219 2.43786ZM1.25 3.40302L0.25 3.40188V3.40302H1.25ZM1.25 8.71349H0.25L0.25 8.71383L1.25 8.71349ZM2.165 9.81833L1.97833 10.8008L1.98318 10.8017L2.165 9.81833ZM13.0836 11.8372L13.2699 10.8547L13.2654 10.8539L13.0836 11.8372ZM13.0836 12.2057L13.2654 13.189L13.2699 13.1882L13.0836 12.2057ZM2.16547 14.2246L1.98364 13.2412L1.97922 13.2421L2.16547 14.2246ZM1.25 15.3285L0.25 15.3272V15.3285H1.25ZM1.25 20.6399L2.25 20.6406V20.6399H1.25ZM1.74641 21.5629L2.29981 20.7299L2.29711 20.7282L1.74641 21.5629ZM2.36609 21.7504L2.36491 22.7504L2.36697 22.7504L2.36609 21.7504ZM2.81234 21.6599L2.43107 20.7354L2.42369 20.7385L2.81234 21.6599ZM22.8313 13.4038L23.2125 14.3283L23.2362 14.3185L23.2593 14.3075L22.8313 13.4038ZM22.8402 13.3996L22.4453 12.4808L22.4286 12.488L22.4121 12.4958L22.8402 13.3996ZM23.241 9.72718L23.2335 9.7239L22.4318 11.5562L22.4393 11.5595L23.241 9.72718ZM23.2158 9.71635L3.1964 1.41291L2.43016 3.26031L22.4495 11.5637L23.2158 9.71635ZM3.19938 1.41415C2.87852 1.27986 2.52938 1.22719 2.18319 1.26086L2.37678 3.25147C2.39396 3.2498 2.41127 3.25241 2.42719 3.25907L3.19938 1.41415ZM2.18319 1.26086C1.837 1.29453 1.50455 1.41348 1.21558 1.60708L2.32879 3.26864C2.34312 3.25904 2.35961 3.25314 2.37678 3.25147L2.18319 1.26086ZM1.22412 1.60143C0.92523 1.79728 0.679724 2.06435 0.509684 2.37864L2.26873 3.33035C2.28099 3.30768 2.2987 3.28842 2.32026 3.27429L1.22412 1.60143ZM0.509684 2.37864C0.339645 2.69292 0.250407 3.04455 0.250001 3.40188L2.25 3.40415C2.25003 3.37838 2.25647 3.35302 2.26873 3.33035L0.509684 2.37864ZM0.25 3.40302V8.71349H2.25V3.40302H0.25ZM0.25 8.71383C0.250169 9.20846 0.422886 9.68755 0.738383 10.0685L2.27873 8.79283C2.26017 8.77042 2.25001 8.74224 2.25 8.71315L0.25 8.71383ZM0.738383 10.0685C1.05388 10.4495 1.49239 10.7084 1.97833 10.8008L2.35167 8.83591C2.32308 8.83047 2.29729 8.81524 2.27873 8.79283L0.738383 10.0685ZM1.98318 10.8017L12.9018 12.8206L13.2654 10.8539L2.34682 8.835L1.98318 10.8017ZM12.8973 12.8197C12.7114 12.7845 12.5436 12.6855 12.4229 12.5397L13.9632 11.264C13.7868 11.051 13.5416 10.9062 13.2699 10.8547L12.8973 12.8197ZM12.4229 12.5397C12.3022 12.394 12.2362 12.2107 12.2362 12.0215H14.2362C14.2362 11.7449 14.1396 11.477 13.9632 11.264L12.4229 12.5397ZM12.2362 12.0215C12.2362 11.8322 12.3022 11.6489 12.4229 11.5032L13.9632 12.7789C14.1396 12.5659 14.2362 12.298 14.2362 12.0215H12.2362ZM12.4229 11.5032C12.5436 11.3575 12.7114 11.2584 12.8973 11.2232L13.2699 13.1882C13.5416 13.1367 13.7868 12.9919 13.9632 12.7789L12.4229 11.5032ZM12.9018 11.2223L1.98364 13.2413L2.3473 15.2079L13.2654 13.189L12.9018 11.2223ZM1.97922 13.2421C1.49341 13.3342 1.05493 13.5928 0.739289 13.9734L2.27878 15.2501C2.29735 15.2277 2.32314 15.2125 2.35172 15.2071L1.97922 13.2421ZM0.739289 13.9734C0.42365 14.354 0.25062 14.8328 0.250001 15.3272L2.25 15.3297C2.25004 15.3007 2.26021 15.2725 2.27878 15.2501L0.739289 13.9734ZM0.25 15.3285V20.6399H2.25V15.3285H0.25ZM0.25 20.6392C0.249763 20.9877 0.336046 21.3308 0.501106 21.6377L2.26251 20.6903C2.25429 20.675 2.24999 20.6579 2.25 20.6406L0.25 20.6392ZM0.501106 21.6377C0.666166 21.9445 0.904839 22.2057 1.19571 22.3976L2.29711 20.7282C2.28262 20.7186 2.27073 20.7056 2.26251 20.6903L0.501106 21.6377ZM1.19301 22.3958C1.54032 22.6265 1.94792 22.7499 2.36491 22.7504L2.36728 20.7504C2.34327 20.7503 2.3198 20.7432 2.29981 20.7299L1.19301 22.3958ZM2.36697 22.7504C2.65346 22.7501 2.93702 22.6926 3.201 22.5813L2.42369 20.7385C2.40519 20.7463 2.38531 20.7503 2.36522 20.7504L2.36697 22.7504ZM3.19361 22.5844L23.2125 14.3283L22.45 12.4793L2.43108 20.7354L3.19361 22.5844ZM23.2593 14.3075L23.2682 14.3033L22.4121 12.4958L22.4032 12.5001L23.2593 14.3075ZM23.235 14.3183C23.6841 14.1253 24.0668 13.8049 24.3357 13.3966L22.6655 12.2965C22.6117 12.3781 22.5351 12.4422 22.4453 12.4808L23.235 14.3183ZM24.3357 13.3966C24.6046 12.9884 24.7479 12.5103 24.7479 12.0215H22.7479C22.7479 12.1192 22.7192 12.2148 22.6655 12.2965L24.3357 13.3966ZM24.7479 12.0215C24.7479 11.5326 24.6046 11.0545 24.3357 10.6463L22.6655 11.7464C22.7192 11.8281 22.7479 11.9237 22.7479 12.0215H24.7479ZM24.3357 10.6463C24.0668 10.238 23.6841 9.91759 23.235 9.72458L22.4453 11.5621C22.5351 11.6007 22.6117 11.6648 22.6655 11.7464L24.3357 10.6463Z" fill="white" mask="url(#path-1-inside-1_4335_15492)"/>
</svg>
