<svg width="72" height="27" viewBox="0 0 72 27" fill="none" xmlns="http://www.w3.org/2000/svg">
<path d="M71.0196 23.1698C71.0196 24.8024 69.6962 26.1258 68.0637 26.1258C66.4311 26.1258 65.1077 24.8024 65.1077 23.1698C65.1077 21.5373 66.4311 20.2138 68.0637 20.2138C69.6962 20.2138 71.0196 21.5373 71.0196 23.1698ZM54.2075 1V0.445755H54.5147L54.6775 0.706251L54.2075 1ZM0.999977 1.55425C0.693878 1.55425 0.445732 1.3061 0.445732 1C0.445732 0.693899 0.693878 0.445755 0.999977 0.445755V1.55425ZM67.5937 23.4636L53.7375 1.29375L54.6775 0.706251L68.5337 22.8761L67.5937 23.4636ZM54.2075 1.55425H0.999977V0.445755H54.2075V1.55425Z" fill="white"/>
</svg>