<svg width="30" height="23" viewBox="0 0 30 23" fill="none" xmlns="http://www.w3.org/2000/svg">
<path d="M0.84668 22.9745V20.9745H29.1543V22.9745H0.84668ZM4.74411 19.6412C4.0706 19.6412 3.50051 19.4078 3.03385 18.9412C2.56718 18.4745 2.33385 17.9044 2.33385 17.2309V3.38484C2.33385 2.71135 2.56718 2.14128 3.03385 1.67461C3.50051 1.20794 4.0706 0.974609 4.74411 0.974609H25.2568C25.9304 0.974609 26.5004 1.20794 26.9671 1.67461C27.4338 2.14128 27.6671 2.71135 27.6671 3.38484V17.2309C27.6671 17.9044 27.4338 18.4745 26.9671 18.9412C26.5004 19.4078 25.9304 19.6412 25.2568 19.6412H4.74411ZM4.74411 17.6412H25.2568C25.3594 17.6412 25.4535 17.5985 25.5389 17.513C25.6244 17.4275 25.6671 17.3335 25.6671 17.2309V3.38484C25.6671 3.28227 25.6244 3.18824 25.5389 3.10278C25.4535 3.01729 25.3594 2.97454 25.2568 2.97454H4.74411C4.64154 2.97454 4.5475 3.01729 4.46201 3.10278C4.37655 3.18824 4.33381 3.28227 4.33381 3.38484V17.2309C4.33381 17.3335 4.37655 17.4275 4.46201 17.513C4.5475 17.5985 4.64154 17.6412 4.74411 17.6412Z" fill="white"/>
</svg>
