<svg width="39" height="45" viewBox="0 0 39 45" fill="none" xmlns="http://www.w3.org/2000/svg">
<g id="Timer">
<path id="Vector" d="M16.9929 44.6316C16.2237 44.4944 15.4423 44.4062 14.6875 44.2127C7.14515 42.2782 2.32522 37.5358 0.669673 29.9393C-1.44505 20.2354 4.58941 10.8102 14.236 8.34398C14.7327 8.21696 15.2393 8.12808 15.7726 8.0149C15.7726 7.06088 15.7726 6.09702 15.7726 5.10209C15.6751 5.08241 15.568 5.06119 15.4613 5.03873C14.3778 4.81145 13.6443 3.81837 13.7418 2.71088C13.8359 1.64183 14.7426 0.779461 15.8375 0.76962C17.7077 0.752704 19.5782 0.760086 21.4484 0.765622C22.6473 0.769313 23.5721 1.61354 23.6637 2.76932C23.7523 3.88849 22.9603 4.85697 21.7944 5.05596C21.7529 5.06303 21.7117 5.0741 21.6403 5.08979C21.6403 6.04965 21.6403 7.01383 21.6403 7.96231C22.6279 8.23019 23.6428 8.41995 24.5907 8.78409C25.7966 9.24726 26.9548 9.83868 28.1183 10.4058C28.3825 10.5347 28.5415 10.5762 28.7826 10.3627C29.5063 9.7212 30.257 9.11071 30.897 8.57219C30.7789 7.9823 30.591 7.48838 30.6011 6.99906C30.6205 6.08748 31.1301 5.44378 31.9857 5.12546C32.8629 4.79915 33.6729 4.98399 34.292 5.6729C35.1886 6.6706 36.0291 7.71812 36.893 8.74472C37.2424 9.15991 37.593 9.57357 37.9381 9.99215C38.7263 10.9486 38.6879 12.1939 37.8486 13.0083C37.0216 13.8107 35.8166 13.8153 34.8641 13.02C34.8318 12.9929 34.7964 12.9695 34.7325 12.9222C34.1297 13.429 33.5226 13.9393 32.9311 14.4363C33.4712 15.235 34.0226 15.9802 34.5009 16.7693C40.7045 27.0056 35.4189 40.571 23.9217 43.8953C22.8589 44.2026 21.7464 44.3382 20.6574 44.5556C20.5765 44.5719 20.4987 44.6055 20.4197 44.631C19.2777 44.6316 18.1355 44.6316 16.9929 44.6316ZM1.4853 26.1822C1.46592 35.7009 9.15623 43.4057 18.7029 43.4318C28.1272 43.4577 35.9015 35.7505 35.9258 26.3572C35.9507 16.7983 28.2804 9.0166 18.8096 8.99292C9.23865 8.96923 1.50467 16.6426 1.4853 26.1822ZM32.7601 6.07333C32.313 6.14007 32.022 6.32368 31.8436 6.66691C31.6443 7.05042 31.7151 7.41733 31.986 7.74118C33.1929 9.18513 34.3985 10.6303 35.6161 12.0653C36.0116 12.5316 36.6058 12.5802 37.0173 12.2191C37.4183 11.8676 37.4589 11.2983 37.0785 10.8401C35.8762 9.39212 34.6688 7.94847 33.4435 6.52021C33.2737 6.32184 32.9911 6.22004 32.7601 6.07333ZM18.7057 1.96384C17.7929 1.96384 16.8798 1.96046 15.9669 1.96507C15.3149 1.96845 14.8782 2.35135 14.8714 2.91294C14.8647 3.47453 15.2934 3.87189 15.9476 3.87435C17.7876 3.88142 19.628 3.88142 21.4681 3.87435C22.121 3.87189 22.551 3.47207 22.5424 2.91048C22.5335 2.34736 22.0995 1.96845 21.4447 1.96507C20.5316 1.96046 19.6188 1.96384 18.7057 1.96384ZM17.0341 5.09655C17.0341 6.04504 17.0341 6.94801 17.0341 7.82976C18.1687 7.82976 19.2716 7.82976 20.3772 7.82976C20.3772 6.91818 20.3772 6.01705 20.3772 5.09655C19.2528 5.09655 18.1613 5.09655 17.0341 5.09655ZM31.7975 9.38781C31.0292 10.0331 30.2874 10.6562 29.5601 11.2669C30.4483 12.0494 31.2864 12.7875 32.1352 13.5354C32.7469 13.0215 33.3534 12.5119 33.9787 11.9863C33.2405 11.107 32.5301 10.2606 31.7975 9.38781Z" fill="#6BFFFF"/>
<path id="Vector_2" d="M3.02863 26.1771C3.04093 17.5445 10.0903 10.5157 18.7171 10.5348C27.3771 10.5538 34.3911 17.5888 34.3837 26.2485C34.3764 34.9143 27.327 41.9016 18.6061 41.8874C10.0208 41.8733 3.01632 34.8088 3.02863 26.1771ZM18.7094 11.7342C10.8213 11.697 4.27021 18.1759 4.22746 26.0559C4.18379 34.1122 10.6014 40.64 18.6138 40.6889C26.6187 40.7378 33.1554 34.2534 33.184 26.2352C33.2126 18.2515 26.7451 11.772 18.7094 11.7342Z" fill="#6BFFFF"/>
<path id="Vector_3" d="M18.1066 23.5064C18.1066 22.0772 18.1066 20.6372 18.1066 19.1973C18.1066 19.0546 18.1035 18.9119 18.1075 18.7692C18.1195 18.3457 18.3489 18.0787 18.6999 18.0753C19.0532 18.072 19.3008 18.3368 19.3036 18.7581C19.311 19.8567 19.306 20.9553 19.3063 22.0538C19.3063 22.5379 19.3063 23.022 19.3063 23.5212C20.3874 23.8352 21.0898 24.5188 21.3888 25.6116C22.6476 25.6116 23.8879 25.6011 25.1277 25.6217C25.334 25.6251 25.5964 25.7103 25.7259 25.8539C25.8381 25.9785 25.8892 26.3005 25.8049 26.4257C25.6837 26.6059 25.4183 26.7864 25.2086 26.7938C24.154 26.8304 23.0975 26.8107 22.042 26.811C21.8289 26.811 21.6161 26.811 21.4134 26.811C20.7389 28.3903 19.6923 29.1161 18.372 28.9368C17.1172 28.7664 16.1496 27.7998 15.9802 26.5475C15.8009 25.2219 16.5365 24.1609 18.1066 23.5064ZM20.2468 26.2113C20.2441 25.3548 19.5376 24.6594 18.6839 24.6723C17.8452 24.6852 17.1661 25.3751 17.1667 26.2131C17.1673 27.0684 17.8719 27.762 18.7297 27.7524C19.5631 27.7432 20.2496 27.046 20.2468 26.2113Z" fill="#6BFFFF"/>
<path id="Vector_4" d="M19.3043 14.3706C19.3043 14.6264 19.3169 14.8829 19.3013 15.1379C19.2791 15.4928 19.0205 15.7548 18.7031 15.7324C18.342 15.7069 18.1227 15.4987 18.1126 15.1302C18.0984 14.6191 18.0947 14.1067 18.1141 13.5958C18.1276 13.2335 18.3343 13.0096 18.7105 13.0121C19.0863 13.0146 19.2785 13.2418 19.3016 13.6038C19.3176 13.8582 19.3043 14.115 19.3043 14.3706Z" fill="#6BFFFF"/>
<path id="Vector_5" d="M6.87883 25.6147C7.13471 25.6143 7.39151 25.5999 7.64586 25.6177C7.99646 25.6423 8.25481 25.9127 8.22682 26.2288C8.19668 26.5684 8.00108 26.7904 7.65355 26.803C7.12856 26.8224 6.60172 26.8224 6.07642 26.8033C5.71659 26.7904 5.48746 26.5299 5.50376 26.1938C5.52068 25.8392 5.72858 25.6469 6.06904 25.619C6.33723 25.5974 6.6088 25.615 6.87883 25.6147Z" fill="#6BFFFF"/>
<path id="Vector_6" d="M30.5657 26.8073C30.2957 26.8073 30.0247 26.8229 29.7563 26.8033C29.4093 26.7777 29.2137 26.5652 29.1854 26.2254C29.159 25.9089 29.4189 25.6303 29.7692 25.6183C30.2942 25.6001 30.8213 25.5973 31.346 25.6204C31.6864 25.6355 31.8928 25.8419 31.9088 26.1958C31.9239 26.5305 31.6923 26.77 31.3334 26.8076C31.3051 26.8106 31.2765 26.81 31.2482 26.81C31.0209 26.8103 30.7936 26.81 30.566 26.81C30.5657 26.8094 30.5657 26.8085 30.5657 26.8073Z" fill="#6BFFFF"/>
<path id="Vector_7" d="M19.3063 38.0665C19.3063 38.2655 19.3084 38.4645 19.306 38.6635C19.2998 39.1617 19.0879 39.4219 18.6961 39.4154C18.3188 39.4096 18.1133 39.1586 18.1081 38.685C18.1035 38.2587 18.1025 37.8322 18.1084 37.4062C18.1145 36.9596 18.3563 36.6795 18.717 36.6868C19.0769 36.6942 19.2986 36.9707 19.306 37.4271C19.3091 37.6399 19.3063 37.8531 19.3063 38.0665Z" fill="#6BFFFF"/>
<path id="Vector_8" d="M24.34 17.2161C23.7932 17.2014 23.5136 16.7631 23.7194 16.3531C23.9611 15.8715 24.2385 15.4056 24.5292 14.9513C24.7171 14.6573 25.0194 14.6022 25.3156 14.7739C25.6157 14.9476 25.7015 15.2416 25.5419 15.5477C25.2922 16.0259 25.0237 16.4961 24.7269 16.9461C24.6307 17.0916 24.4212 17.1623 24.34 17.2161Z" fill="#6BFFFF"/>
<path id="Vector_9" d="M13.8105 35.7142C13.7385 35.9236 13.717 36.0374 13.6635 36.1337C13.4291 36.5553 13.1944 36.977 12.9426 37.3882C12.7427 37.7148 12.3933 37.8151 12.1045 37.6554C11.8138 37.4949 11.7197 37.1452 11.9037 36.8045C12.1392 36.3674 12.3902 35.9384 12.647 35.5134C12.8029 35.2553 13.0616 35.1138 13.3341 35.2449C13.5327 35.3408 13.6684 35.5678 13.8105 35.7142Z" fill="#6BFFFF"/>
<path id="Vector_10" d="M13.0499 17.2142C12.9647 17.1502 12.7562 17.0604 12.6504 16.902C12.3755 16.4896 12.1365 16.052 11.9009 15.6146C11.7182 15.2754 11.8139 14.9245 12.1055 14.7643C12.3976 14.6037 12.7396 14.7034 12.9417 15.0343C13.193 15.4461 13.4384 15.8625 13.6614 16.29C13.8988 16.7452 13.6398 17.2114 13.0499 17.2142Z" fill="#6BFFFF"/>
<path id="Vector_11" d="M9.71067 20.5673C9.70575 21.112 9.27056 21.4054 8.86214 21.2036C8.36759 20.9594 7.89089 20.674 7.42864 20.3726C7.15492 20.1943 7.11709 19.8975 7.27117 19.6167C7.42803 19.3313 7.70728 19.2172 7.997 19.3629C8.5023 19.617 8.99315 19.9042 9.46893 20.2105C9.60426 20.2976 9.66607 20.4978 9.71067 20.5673Z" fill="#6BFFFF"/>
<path id="Vector_12" d="M9.7108 31.8567C9.6459 31.9453 9.55794 32.1572 9.39925 32.2633C8.9859 32.5401 8.54579 32.7787 8.10784 33.0171C7.78922 33.1905 7.49581 33.1419 7.28483 32.8307C7.09446 32.5499 7.18611 32.1879 7.5115 31.9871C7.93561 31.7251 8.36618 31.4713 8.80936 31.2437C9.23994 31.0226 9.69972 31.2896 9.7108 31.8567Z" fill="#6BFFFF"/>
<path id="Vector_13" d="M25.631 37.2525C25.5329 37.3632 25.4117 37.6225 25.2426 37.6588C25.0328 37.704 24.6813 37.6403 24.5697 37.4906C24.2311 37.0366 23.9561 36.5298 23.7021 36.0208C23.5714 35.7587 23.643 35.4346 23.9297 35.3251C24.1317 35.2479 24.5251 35.2494 24.6143 35.3734C24.9858 35.8895 25.2749 36.4646 25.5914 37.02C25.611 37.0545 25.6067 37.103 25.631 37.2525Z" fill="#6BFFFF"/>
<path id="Vector_14" d="M30.2184 20.0336C30.1554 20.1151 30.0619 20.3212 29.902 20.427C29.4868 20.7019 29.0491 20.9452 28.6081 21.1771C28.2907 21.3441 27.9945 21.2915 27.7897 20.9719C27.6101 20.6921 27.6888 20.3553 28.0028 20.1591C28.4377 19.8872 28.88 19.6239 29.3367 19.3911C29.7694 19.1703 30.2212 19.4505 30.2184 20.0336Z" fill="#6BFFFF"/>
<path id="Vector_15" d="M30.2185 32.415C30.2179 32.9563 29.7833 33.2497 29.3737 33.0461C28.8899 32.8059 28.423 32.5269 27.9679 32.2351C27.6975 32.0616 27.6203 31.7857 27.7741 31.4856C27.939 31.1645 28.237 31.0676 28.5344 31.2118C29.0326 31.4542 29.5102 31.7439 29.975 32.0471C30.1097 32.1357 30.1699 32.3384 30.2185 32.415Z" fill="#6BFFFF"/>
</g>
</svg>
