<svg width="80" height="30" viewBox="0 0 80 30" fill="none" xmlns="http://www.w3.org/2000/svg">
<path d="M58.6641 18.1323V9.96289H59.9836V18.1323H58.6641Z" fill="white"/>
<path d="M66.2908 18.1316L63.9648 11.301H63.9201C63.9201 11.4599 63.9425 11.6641 63.9648 11.9137C63.9872 12.1861 63.9872 12.4584 64.0096 12.7534C64.0096 13.0484 64.0319 13.3434 64.0319 13.6157V18.1089H62.8242V9.93945H64.6805L66.917 16.475H66.9394L69.243 9.93945H71.0993V18.1089H69.8469V13.5476C69.8469 13.298 69.8469 13.0257 69.8469 12.7307C69.8469 12.4357 69.8692 12.1634 69.8692 11.9137C69.8916 11.6641 69.8916 11.4372 69.914 11.2783H69.8692L67.4762 18.0862H66.2908V18.1316Z" fill="white"/>
<path d="M78.4805 18.1323H73.918V9.96289H78.4805V11.0975H75.2375V13.3214H78.2792V14.4561H75.2375V17.0204H78.4805V18.1323Z" fill="white"/>
<path d="M52.0469 9.96215C52.7402 9.96215 53.3217 10.0529 53.769 10.2118C54.2163 10.3933 54.5518 10.6429 54.7754 11.006C54.9991 11.3464 55.1109 11.8003 55.1109 12.3449C55.1109 12.7534 55.0438 13.0938 54.8872 13.3661C54.7307 13.6611 54.5518 13.888 54.3057 14.0696C54.0597 14.2511 53.8137 14.41 53.5453 14.5007L55.8266 18.1089H54.3281L52.3823 14.8411H51.0852V18.1089H49.7656V9.93945H52.0469V9.96215ZM51.9574 11.0968H51.1075V13.7746H52.0245C52.6284 13.7746 53.0757 13.6611 53.344 13.4342C53.6124 13.2072 53.769 12.8668 53.769 12.413C53.769 11.9364 53.6124 11.6187 53.3217 11.4145C53.0309 11.1876 52.5836 11.0968 51.9574 11.0968Z" fill="white"/>
<path d="M46.253 10.621C45.7834 10.1898 45.023 9.96289 43.9718 9.96289H38.9844V11.0748H43.8823C44.4638 11.0748 44.9111 11.1883 45.2019 11.4152C45.4926 11.6422 45.6268 12.0052 45.6268 12.4818C45.6268 12.8222 45.5597 13.1172 45.4032 13.3214C45.2466 13.5484 45.023 13.6845 44.7546 13.798C44.4638 13.8888 44.106 13.9568 43.7034 13.9568H42.9654H41.6235V18.1323H42.943V15.0688H43.7929C44.3744 15.0688 44.8664 15.0007 45.269 14.8646C45.6715 14.7284 45.9847 14.5242 46.2307 14.2745C46.4767 14.0249 46.6556 13.7526 46.7674 13.4349C46.8793 13.1172 46.924 12.7768 46.924 12.4364C46.9687 11.6422 46.7227 11.0521 46.253 10.621Z" fill="white"/>
<path d="M44.6427 25.9375C44.8888 25.7559 45.0677 25.5063 45.2242 25.234C45.3808 24.939 45.4479 24.5986 45.4479 24.2128C45.4479 23.6682 45.3361 23.237 45.1124 22.8739C44.8888 22.5336 44.5533 22.2612 44.106 22.0797C43.6587 21.8982 43.0772 21.8301 42.3839 21.8301H40.125V29.9995H41.4445V26.7317H42.7417L44.6875 29.9995H46.1859L43.9047 26.3913C44.1507 26.2779 44.3967 26.119 44.6427 25.9375ZM42.3391 25.6198H41.4222V22.942H42.272C42.8759 22.942 43.3456 23.0328 43.6363 23.237C43.9271 23.4413 44.0836 23.759 44.0836 24.2355C44.0836 24.6894 43.9494 25.0298 43.6587 25.2567C43.3903 25.5063 42.9654 25.6198 42.3391 25.6198Z" fill="white"/>
<path d="M51.4618 21.7852L48.4648 30H49.8515L50.6343 27.7307H53.7206L54.5034 30H55.9124L52.9155 21.7852H51.4618ZM51.0145 26.5734L51.7749 24.3268C51.7972 24.236 51.842 24.1225 51.8867 23.941C51.9314 23.7821 51.9985 23.6006 52.0433 23.419C52.088 23.2375 52.1327 23.056 52.1774 22.8971C52.2222 23.0333 52.2669 23.1694 52.3116 23.3737C52.3564 23.5552 52.4235 23.7367 52.4682 23.9183C52.5129 24.0998 52.5577 24.236 52.6024 24.3268L53.3628 26.5734H51.0145Z" fill="white"/>
<path d="M62.8473 22.2839C62.2434 21.9889 61.5277 21.8301 60.6778 21.8301H58.1953V29.9995H60.4318C61.3488 29.9995 62.1092 29.8407 62.7578 29.523C63.4064 29.2053 63.8984 28.7514 64.2339 28.1387C64.5694 27.526 64.7483 26.7544 64.7483 25.824C64.7483 24.939 64.5917 24.2128 64.2563 23.6228C63.9432 23.0328 63.4735 22.5789 62.8473 22.2839ZM62.646 28.116C62.1539 28.6153 61.4383 28.8649 60.4766 28.8649H59.5372V22.942H60.6778C61.2593 22.942 61.7514 23.0555 62.1539 23.2597C62.5565 23.464 62.8696 23.7817 63.0709 24.2128C63.2722 24.644 63.384 25.1886 63.384 25.8694C63.384 26.8679 63.138 27.6168 62.646 28.116Z" fill="white"/>
<path d="M67.0508 29.9995H71.6133V28.8649H68.3703V26.3006H71.412V25.1659H68.3703V22.942H71.6133V21.8301H67.0508V29.9995Z" fill="white"/>
<path d="M78.4553 25.9375C78.7013 25.7559 78.8802 25.5063 79.0367 25.234C79.1933 24.939 79.2604 24.5986 79.2604 24.2128C79.2604 23.6682 79.1486 23.237 78.9249 22.8739C78.7013 22.5336 78.3658 22.2612 77.9185 22.0797C77.4712 21.8982 76.8897 21.8301 76.1964 21.8301H73.9375V29.9995H75.257V26.7317H76.5542L78.5 29.9995H79.9985L77.7172 26.3913C77.9632 26.2779 78.2092 26.119 78.4553 25.9375ZM76.1516 25.6198H75.2347V22.942H76.0846C76.6884 22.942 77.1581 23.0328 77.4488 23.237C77.7396 23.4413 77.8961 23.759 77.8961 24.2355C77.8961 24.6894 77.7619 25.0298 77.4712 25.2567C77.2028 25.5063 76.7555 25.6198 76.1516 25.6198Z" fill="white"/>
<path d="M31.7812 22.9647H34.1296V29.9995H35.4491V22.9647H37.8198V21.8301H31.7812V22.9647Z" fill="white"/>
<path d="M28.0235 2.63237C26.3461 0.930408 24.1096 0 21.7389 0H0V10.0756H21.6047C22.1638 10.0756 22.6335 9.59909 22.6335 9.03177C22.6335 8.46445 22.1638 7.9879 21.6047 7.9879H2.05759V2.08774H21.6718C25.4515 2.08774 28.5602 5.19667 28.5602 8.98638C28.5602 10.8472 27.8669 12.5719 26.5697 13.888C25.2726 15.2042 23.5505 15.9304 21.7389 15.9304H16.3489V23.8048C16.3489 26.0287 14.5821 27.8669 12.4126 27.8896C11.3391 27.8896 10.3327 27.4811 9.57227 26.7095C8.81185 25.938 8.38692 24.9168 8.38692 23.8502V15.4992H6.32933V23.8502C6.32933 25.4841 6.95555 27.0272 8.09617 28.1846C9.23679 29.3419 10.7576 29.9773 12.3679 29.9773H12.3903C15.7003 29.9773 18.4065 27.1861 18.4065 23.7821V18.0182H21.5376C24.0872 18.0182 26.3237 17.0877 28.0011 15.3858C29.6785 13.6838 30.5955 11.4145 30.5955 9.00908C30.5955 6.60363 29.7009 4.33434 28.0235 2.63237Z" fill="url(#paint0_linear_3091_3080)"/>
<path d="M22.6346 9.00872C22.6346 8.44139 22.1649 7.96484 21.6058 7.96484H2.08103L0.0234375 10.0526H21.6058C22.1649 10.0526 22.6346 9.59873 22.6346 9.00872Z" fill="url(#paint1_linear_3091_3080)"/>
<path d="M16.3477 15.9526V23.8271C16.3477 26.051 14.5809 27.8891 12.4114 27.9118C11.3379 27.9118 10.3315 27.5033 9.57107 26.7318C8.81065 25.9602 8.38572 24.939 8.38572 23.8725V15.5215H6.32812V23.8725C6.32812 25.5064 6.95435 27.0495 8.09497 28.2068C9.23559 29.3641 10.7564 29.9995 12.3667 29.9995H12.3891C15.6991 29.9995 18.4053 27.2083 18.4053 23.8044V18.0404L16.3477 15.9526Z" fill="url(#paint2_linear_3091_3080)"/>
<path d="M28.0235 2.63237C26.3461 0.930408 24.1096 0 21.7389 0H0L2.05759 2.08774H21.6718C25.4515 2.08774 28.5602 5.19667 28.5602 8.98638C28.5602 10.8472 27.8669 12.5719 26.5697 13.888C25.2726 15.2042 23.5505 15.9304 21.7389 15.9304H16.3713L18.4289 18.0182H21.7165C24.0872 18.0182 26.3237 17.0877 28.0011 15.3858C29.6785 13.6838 30.5955 11.4145 30.5955 9.00908C30.5955 6.60363 29.7009 4.33434 28.0235 2.63237Z" fill="url(#paint3_linear_3091_3080)"/>
<defs>
<linearGradient id="paint0_linear_3091_3080" x1="-4.49315" y1="-7.46519" x2="14.2455" y2="11.0028" gradientUnits="userSpaceOnUse">
<stop stop-color="#37A9FF"/>
<stop offset="0.3664" stop-color="#A0F7FF"/>
</linearGradient>
<linearGradient id="paint1_linear_3091_3080" x1="2.82078" y1="0.686126" x2="10.6942" y2="8.44584" gradientUnits="userSpaceOnUse">
<stop offset="0.3464" stop-color="#126580"/>
<stop offset="0.5856" stop-color="#37A9FF"/>
<stop offset="0.8949" stop-color="#A0F7FF"/>
</linearGradient>
<linearGradient id="paint2_linear_3091_3080" x1="18.5721" y1="10.6825" x2="12.6265" y2="19.8907" gradientUnits="userSpaceOnUse">
<stop offset="0.4482" stop-color="#126580"/>
<stop offset="0.5856" stop-color="#37A9FF"/>
<stop offset="0.8949" stop-color="#A0F7FF"/>
</linearGradient>
<linearGradient id="paint3_linear_3091_3080" x1="0.592518" y1="-12.2905" x2="18.8137" y2="5.66749" gradientUnits="userSpaceOnUse">
<stop offset="0.3464" stop-color="#126580"/>
<stop offset="0.5856" stop-color="#37A9FF"/>
<stop offset="0.8949" stop-color="#A0F7FF"/>
</linearGradient>
</defs>
</svg>
