<svg width="24" height="24" viewBox="0 0 24 24" fill="none" xmlns="http://www.w3.org/2000/svg">
<path d="M10.4 16.6665C10.4 18.5074 8.96731 19.9998 7.2 19.9998C5.43269 19.9998 4 18.5074 4 16.6665C4 15.5146 5.25274 13.9772 6.19058 12.9877C6.74578 12.4019 7.65422 12.4019 8.20942 12.9877C9.14726 13.9772 10.4 15.5146 10.4 16.6665Z" fill="white"/>
<path d="M20 16.6665C20 18.5074 18.5673 19.9998 16.8 19.9998C15.0327 19.9998 13.6 18.5074 13.6 16.6665C13.6 15.5146 14.8527 13.9772 15.7906 12.9877C16.3458 12.4019 17.2542 12.4019 17.8094 12.9877C18.7473 13.9772 20 15.5146 20 16.6665Z" fill="white"/>
<path d="M15.2 8.66645C15.2 10.5074 13.7673 11.9998 12 11.9998C10.2327 11.9998 8.8 10.5074 8.8 8.66645C8.8 7.5146 10.0527 5.97722 10.9906 4.98769C11.5458 4.40189 12.4542 4.40189 13.0094 4.98769C13.9473 5.97722 15.2 7.5146 15.2 8.66645Z" fill="white"/>
</svg>
