<svg width="24" height="24" viewBox="0 0 24 24" fill="none" xmlns="http://www.w3.org/2000/svg">
<path fill-rule="evenodd" clip-rule="evenodd" d="M12.5743 5.40081C12.2558 5.0647 11.745 5.0647 11.4265 5.40081C10.9691 5.88334 10.4479 6.4864 10.0447 7.09714C9.62666 7.73046 9.40039 8.27685 9.40039 8.66684C9.40039 10.1997 10.5873 11.4002 12.0004 11.4002C13.4135 11.4002 14.6004 10.1997 14.6004 8.66684C14.6004 8.27685 14.3741 7.73046 13.9561 7.09714C13.5529 6.4864 13.0316 5.88334 12.5743 5.40081ZM10.5555 4.57534C11.3473 3.73986 12.6535 3.73986 13.4453 4.57534C13.9258 5.08235 14.4999 5.74274 14.9575 6.43604C15.4003 7.10676 15.8004 7.90498 15.8004 8.66684C15.8004 10.8158 14.1219 12.6002 12.0004 12.6002C9.87886 12.6002 8.20039 10.8158 8.20039 8.66684C8.20039 7.90498 8.6005 7.10676 9.04326 6.43604C9.50092 5.74274 10.075 5.08235 10.5555 4.57534ZM7.77432 13.4008C7.45577 13.0647 6.94501 13.0647 6.62646 13.4008C6.16914 13.8833 5.64789 14.4864 5.24473 15.0971C4.82666 15.7305 4.60039 16.2768 4.60039 16.6668C4.60039 18.1997 5.7873 19.4002 7.20039 19.4002C8.61348 19.4002 9.80039 18.1997 9.80039 16.6668C9.80039 16.2768 9.57413 15.7305 9.15605 15.0971C8.75289 14.4864 8.23164 13.8833 7.77432 13.4008ZM5.75549 12.5753C6.54732 11.7399 7.85346 11.7399 8.64529 12.5753C9.12581 13.0823 9.69986 13.7427 10.1575 14.436C10.6003 15.1068 11.0004 15.905 11.0004 16.6668C11.0004 18.8158 9.32192 20.6002 7.20039 20.6002C5.07886 20.6002 3.40039 18.8158 3.40039 16.6668C3.40039 15.905 3.8005 15.1068 4.24326 14.436C4.70092 13.7427 5.27497 13.0823 5.75549 12.5753ZM17.3743 13.4008C17.0558 13.0647 16.545 13.0647 16.2265 13.4008C15.7691 13.8833 15.2479 14.4864 14.8447 15.0971C14.4267 15.7305 14.2004 16.2768 14.2004 16.6668C14.2004 18.1997 15.3873 19.4002 16.8004 19.4002C18.2135 19.4002 19.4004 18.1997 19.4004 16.6668C19.4004 16.2768 19.1741 15.7305 18.7561 15.0971C18.3529 14.4864 17.8316 13.8833 17.3743 13.4008ZM15.3555 12.5753C16.1473 11.7399 17.4535 11.7399 18.2453 12.5753C18.7258 13.0823 19.2999 13.7427 19.7575 14.436C20.2003 15.1068 20.6004 15.905 20.6004 16.6668C20.6004 18.8158 18.9219 20.6002 16.8004 20.6002C14.6789 20.6002 13.0004 18.8158 13.0004 16.6668C13.0004 15.905 13.4005 15.1068 13.8433 14.436C14.3009 13.7427 14.875 13.0823 15.3555 12.5753Z" fill="white"/>
</svg>
