<svg width="24" height="24" viewBox="0 0 24 24" fill="none" xmlns="http://www.w3.org/2000/svg">
<path d="M4.05768 20.7501C3.56056 20.7501 3.135 20.5731 2.781 20.2191C2.427 19.8651 2.25 19.4396 2.25 18.9425V3.60598L3.67498 5.03096L5.32498 3.35596L6.99998 5.03096L8.67498 3.35596L10.325 5.03096L12 3.35596L13.675 5.03096L15.325 3.35596L17 5.03096L18.675 3.35596L20.325 5.03096L21.75 3.60598V18.9425C21.75 19.4396 21.573 19.8651 21.219 20.2191C20.865 20.5731 20.4394 20.7501 19.9423 20.7501H4.05768ZM4.05768 19.2502H11.25V12.7501H3.74995V18.9425C3.74995 19.0322 3.7788 19.1059 3.8365 19.1636C3.8942 19.2213 3.96793 19.2502 4.05768 19.2502ZM12.75 19.2502H19.9423C20.032 19.2502 20.1058 19.2213 20.1635 19.1636C20.2212 19.1059 20.25 19.0322 20.25 18.9425V16.7501H12.75V19.2502ZM12.75 15.2502H20.25V12.7501H12.75V15.2502ZM3.74995 11.2502H20.25V7.65398H3.74995V11.2502Z" fill="white"/>
</svg>
