<svg width="24" height="24" viewBox="0 0 24 24" fill="none" xmlns="http://www.w3.org/2000/svg">
<path d="M12 21.3809C11.8961 21.3809 11.7942 21.371 11.6942 21.3511C11.5942 21.3312 11.4972 21.3046 11.4032 21.2713C9.28823 20.5213 7.60896 19.1915 6.36537 17.2819C5.12179 15.3723 4.5 13.3117 4.5 11.1002V6.59633C4.5 6.21648 4.60922 5.87462 4.82765 5.57073C5.04608 5.26685 5.32853 5.04654 5.675 4.90981L11.3673 2.78481C11.5814 2.70789 11.7923 2.66943 12 2.66943C12.2077 2.66943 12.4186 2.70789 12.6327 2.78481L18.325 4.90981C18.6714 5.04654 18.9539 5.26685 19.1723 5.57073C19.3907 5.87462 19.5 6.21648 19.5 6.59633V11.1002C19.5 12.2219 19.3314 13.3242 18.9942 14.4069C18.657 15.4895 18.1597 16.5008 17.5023 17.4405C17.3828 17.6187 17.2176 17.712 17.0066 17.7203C16.7956 17.7286 16.612 17.6559 16.4557 17.502L13.8846 14.9309C13.6102 15.1206 13.3118 15.2629 12.9894 15.3578C12.667 15.4527 12.3372 15.5001 12 15.5001C11.0375 15.5001 10.2135 15.1574 9.52813 14.472C8.84271 13.7866 8.5 12.9626 8.5 12.0002C8.5 11.0377 8.84271 10.2137 9.52813 9.52831C10.2135 8.84289 11.0375 8.50018 12 8.50018C12.9625 8.50018 13.7864 8.84289 14.4718 9.52831C15.1572 10.2137 15.5 11.0377 15.5 12.0002C15.5 12.3377 15.4541 12.6638 15.3625 12.9783C15.2708 13.2929 15.1397 13.5925 14.9692 13.8771L16.8346 15.7425C17.1936 15.0399 17.4775 14.3024 17.6865 13.53C17.8955 12.7575 18 11.9476 18 11.1002V6.58671C18 6.52261 17.9823 6.46492 17.9471 6.41363C17.9118 6.36233 17.8621 6.32387 17.798 6.29823L12.1057 4.17323C12.0737 4.16042 12.0384 4.15401 12 4.15401C11.9615 4.15401 11.9263 4.16042 11.8942 4.17323L6.20192 6.29823C6.13781 6.32387 6.08812 6.36233 6.05287 6.41363C6.01761 6.46492 5.99997 6.52261 5.99997 6.58671V11.1002C5.99997 13.1168 6.56664 14.9502 7.69997 16.6002C8.83331 18.2502 10.2666 19.3502 12 19.9002C12.3051 19.804 12.6029 19.688 12.8933 19.5521C13.1836 19.4162 13.4699 19.2572 13.7519 19.0752C13.9276 18.9675 14.1197 18.926 14.3282 18.9508C14.5368 18.9756 14.7043 19.0747 14.8307 19.2482C14.9525 19.4239 14.9917 19.6112 14.9483 19.8104C14.905 20.0095 14.7965 20.165 14.623 20.277C14.2961 20.477 13.9692 20.661 13.6423 20.829C13.3154 20.9969 12.9679 21.1476 12.5998 21.2809C12.5038 21.3142 12.4057 21.3392 12.3057 21.3559C12.2057 21.3726 12.1038 21.3809 12 21.3809ZM12 14.0002C12.55 14.0002 13.0208 13.8043 13.4125 13.4127C13.8041 13.021 14 12.5502 14 12.0002C14 11.4502 13.8041 10.9793 13.4125 10.5877C13.0208 10.196 12.55 10.0002 12 10.0002C11.45 10.0002 10.9791 10.196 10.5875 10.5877C10.1958 10.9793 9.99997 11.4502 9.99997 12.0002C9.99997 12.5502 10.1958 13.021 10.5875 13.4127C10.9791 13.8043 11.45 14.0002 12 14.0002Z" fill="white"/>
</svg>
