<svg width="24" height="24" viewBox="0 0 24 24" fill="none" xmlns="http://www.w3.org/2000/svg">
<path d="M12.0012 21.3713C11.8901 21.3713 11.7846 21.3629 11.6846 21.3463C11.5846 21.3296 11.4877 21.3046 11.394 21.2713C9.28517 20.5213 7.60896 19.1915 6.36537 17.2819C5.12179 15.3723 4.5 13.3117 4.5 11.1002V6.59633C4.5 6.21648 4.60922 5.87462 4.82765 5.57073C5.04608 5.26685 5.32853 5.04654 5.675 4.90981L11.3673 2.78481C11.5814 2.70789 11.7923 2.66943 12 2.66943C12.2077 2.66943 12.4186 2.70789 12.6327 2.78481L18.325 4.90981C18.6714 5.04654 18.9539 5.26685 19.1723 5.57073C19.3907 5.87462 19.5 6.21648 19.5 6.59633V11.1002C19.5 12.1245 19.3608 13.1149 19.0826 14.0713C18.8044 15.0277 18.4166 15.9463 17.9192 16.8271L14.9692 13.8771C15.1397 13.5925 15.2708 13.2929 15.3625 12.9783C15.4541 12.6638 15.5 12.3377 15.5 12.0002C15.5 11.0377 15.1572 10.2137 14.4718 9.52831C13.7864 8.84289 12.9625 8.50018 12 8.50018C11.0375 8.50018 10.2135 8.84289 9.52813 9.52831C8.84271 10.2137 8.5 11.0377 8.5 12.0002C8.5 12.9626 8.84271 13.7866 9.52813 14.472C10.2135 15.1574 11.0375 15.5001 12 15.5001C12.3372 15.5001 12.667 15.4527 12.9894 15.3578C13.3118 15.2629 13.6102 15.1206 13.8846 14.9309L17.0326 18.0636C16.4121 18.7943 15.7419 19.4302 15.0221 19.9713C14.3022 20.5123 13.4936 20.9456 12.5961 21.2713C12.5009 21.3046 12.4058 21.3296 12.3106 21.3463C12.2154 21.3629 12.1122 21.3713 12.0012 21.3713ZM12 14.0002C11.45 14.0002 10.9791 13.8043 10.5875 13.4127C10.1958 13.021 9.99997 12.5502 9.99997 12.0002C9.99997 11.4502 10.1958 10.9793 10.5875 10.5877C10.9791 10.196 11.45 10.0002 12 10.0002C12.55 10.0002 13.0208 10.196 13.4125 10.5877C13.8041 10.9793 14 11.4502 14 12.0002C14 12.5502 13.8041 13.021 13.4125 13.4127C13.0208 13.8043 12.55 14.0002 12 14.0002Z" fill="white"/>
</svg>
