<svg width="24" height="24" viewBox="0 0 24 24" fill="none" xmlns="http://www.w3.org/2000/svg">
<path d="M7.32693 10.8577V6.99998H5.3077C5.21795 6.99998 5.14423 7.02883 5.08653 7.08653C5.02883 7.14423 4.99997 7.21795 4.99997 7.3077V7.99998C4.99997 8.69741 5.21857 9.30991 5.65575 9.83748C6.09293 10.365 6.64999 10.7051 7.32693 10.8577ZM16.673 10.8577C17.35 10.7051 17.907 10.365 18.3442 9.83748C18.7814 9.30991 19 8.69741 19 7.99998V7.3077C19 7.21795 18.9711 7.14423 18.9134 7.08653C18.8557 7.02883 18.782 6.99998 18.6923 6.99998H16.673V10.8577ZM11.25 19V15.573C10.3821 15.4474 9.61763 15.108 8.95673 14.5548C8.29583 14.0016 7.84743 13.3064 7.61153 12.4692C6.45769 12.332 5.48398 11.8423 4.6904 11C3.8968 10.1577 3.5 9.15766 3.5 7.99998V7.3077C3.5 6.80898 3.67661 6.38303 4.02982 6.02982C4.38302 5.67661 4.80898 5.5 5.3077 5.5H7.32693V5.3077C7.32693 4.80898 7.50352 4.38302 7.85672 4.02982C8.20993 3.67661 8.63588 3.5 9.1346 3.5H14.8654C15.3641 3.5 15.79 3.67661 16.1432 4.02982C16.4964 4.38302 16.673 4.80898 16.673 5.3077V5.5H18.6923C19.191 5.5 19.6169 5.67661 19.9701 6.02982C20.3233 6.38303 20.5 6.80898 20.5 7.3077V7.99998C20.5 9.15766 20.1032 10.1577 19.3096 11C18.516 11.8423 17.5423 12.332 16.3884 12.4692C16.1525 13.3064 15.7041 14.0016 15.0432 14.5548C14.3823 15.108 13.6179 15.4474 12.75 15.573V19H15.5576C15.7704 19 15.9486 19.0718 16.0922 19.2154C16.2358 19.3589 16.3076 19.5371 16.3076 19.75C16.3076 19.9628 16.2358 20.141 16.0922 20.2846C15.9486 20.4282 15.7704 20.5 15.5576 20.5H8.44233C8.22951 20.5 8.05131 20.4282 7.90773 20.2846C7.76413 20.141 7.69233 19.9628 7.69233 19.75C7.69233 19.5371 7.76413 19.3589 7.90773 19.2154C8.05131 19.0718 8.22951 19 8.44233 19H11.25Z" fill="white"/>
</svg>
