<svg width="24" height="24" viewBox="0 0 24 24" fill="none" xmlns="http://www.w3.org/2000/svg">
<path d="M6.20385 20.5C5.83975 20.5 5.49369 20.3759 5.16568 20.1279C4.83766 19.8799 4.62026 19.5776 4.51347 19.2211C4.09681 17.7826 3.75995 16.5637 3.5029 15.5644C3.24585 14.565 3.04297 13.7035 2.89425 12.9798C2.74553 12.2561 2.64264 11.6247 2.58558 11.0856C2.52853 10.5465 2.5 10.0179 2.5 9.49998C2.5 8.10604 2.98485 6.92423 3.95455 5.95455C4.92423 4.98485 6.10604 4.5 7.49998 4.5H12.75C13.2 3.9 13.75 3.41667 14.4 3.05C15.05 2.68333 15.75 2.5 16.5 2.5C16.7777 2.5 17.0138 2.59739 17.2083 2.79218C17.4027 2.98696 17.5 3.22348 17.5 3.50173C17.5 3.56851 17.4907 3.63427 17.4721 3.699C17.4535 3.76375 17.4339 3.82818 17.4134 3.89228C17.3403 4.08843 17.2698 4.30061 17.2019 4.52883C17.1339 4.75703 17.0705 5.04678 17.0115 5.39808L19.6134 8H20.5961C20.8522 8 21.0668 8.08663 21.2401 8.25988C21.4133 8.43311 21.5 8.64777 21.5 8.90385V13.4519C21.5 13.6509 21.4439 13.8269 21.3317 13.98C21.2195 14.133 21.0647 14.2448 20.8673 14.3153L18.7711 15.0057L17.5115 19.2096C17.3908 19.602 17.1721 19.9151 16.8553 20.1491C16.5385 20.383 16.1765 20.5 15.7692 20.5H14.3077C13.8106 20.5 13.385 20.3229 13.031 19.9689C12.677 19.6149 12.5 19.1894 12.5 18.6923V18.5H9.49995V18.6923C9.49995 19.1894 9.32294 19.6149 8.96893 19.9689C8.61493 20.3229 8.18937 20.5 7.69225 20.5H6.20385ZM16 10.8846C16.2448 10.8846 16.4535 10.7984 16.6259 10.6259C16.7984 10.4535 16.8846 10.2448 16.8846 9.99998C16.8846 9.75511 16.7984 9.54646 16.6259 9.37403C16.4535 9.20159 16.2448 9.11538 16 9.11538C15.7551 9.11538 15.5465 9.20159 15.374 9.37403C15.2016 9.54646 15.1154 9.75511 15.1154 9.99998C15.1154 10.2448 15.2016 10.4535 15.374 10.6259C15.5465 10.7984 15.7551 10.8846 16 10.8846ZM12.25 8.74995C12.4625 8.74995 12.6406 8.67805 12.7844 8.53425C12.9281 8.39043 13 8.21223 13 7.99965C13 7.78705 12.9281 7.60896 12.7844 7.46538C12.6406 7.32179 12.4625 7.25 12.25 7.25H8.74995C8.53747 7.25 8.35935 7.3219 8.2156 7.4657C8.07185 7.60952 7.99998 7.78772 7.99998 8.0003C7.99998 8.2129 8.07185 8.39099 8.2156 8.53458C8.35935 8.67816 8.53747 8.74995 8.74995 8.74995H12.25Z" fill="white"/>
</svg>
