<svg width="24" height="24" viewBox="0 0 24 24" fill="none" xmlns="http://www.w3.org/2000/svg">
<path d="M2.94194 20.077L2.91309 19.4328L4.74961 17.6059V19.952C4.74961 20.1774 4.66329 20.3667 4.49064 20.5201C4.31797 20.6734 4.05162 20.7501 3.69159 20.7501C3.49182 20.7501 3.32174 20.6862 3.18136 20.5585C3.04098 20.4308 2.96117 20.2703 2.94194 20.077ZM7.24966 20.0001V15.1059L8.74961 13.6059V20.0001C8.74961 20.2126 8.67771 20.3907 8.53391 20.5345C8.39009 20.6782 8.21189 20.7501 7.99931 20.7501C7.78671 20.7501 7.60862 20.6782 7.46504 20.5345C7.32145 20.3907 7.24966 20.2126 7.24966 20.0001ZM11.2497 20.0001V13.6059L12.7496 15.1309V20.0001C12.7496 20.2126 12.6777 20.3907 12.5339 20.5345C12.3901 20.6782 12.2119 20.7501 11.9993 20.7501C11.7867 20.7501 11.6086 20.6782 11.465 20.5345C11.3215 20.3907 11.2497 20.2126 11.2497 20.0001ZM15.2497 20.0001V15.1309L16.7496 13.6309V20.0001C16.7496 20.2126 16.6777 20.3907 16.5339 20.5345C16.3901 20.6782 16.2119 20.7501 15.9993 20.7501C15.7867 20.7501 15.6086 20.6782 15.465 20.5345C15.3215 20.3907 15.2497 20.2126 15.2497 20.0001ZM19.2497 20.0001V11.1059L20.7496 9.60594V20.0001C20.7496 20.2126 20.6777 20.3907 20.5339 20.5345C20.3901 20.6782 20.2119 20.7501 19.9993 20.7501C19.7867 20.7501 19.6086 20.6782 19.465 20.5345C19.3215 20.3907 19.2497 20.2126 19.2497 20.0001ZM3.47274 12.8828L8.71889 7.63666C9.06332 7.29179 9.49013 7.11936 9.99931 7.11936C10.5085 7.11936 10.9355 7.29179 11.2804 7.63666L13.7785 10.1347C13.8362 10.1924 13.9099 10.2213 13.9996 10.2213C14.0894 10.2213 14.1631 10.1924 14.2208 10.1347L19.4727 4.88281C19.6214 4.73409 19.7996 4.6607 20.0073 4.66263C20.215 4.66455 20.3932 4.74308 20.5419 4.89821C20.6804 5.04691 20.7465 5.2239 20.7403 5.42919C20.7341 5.63447 20.6629 5.80554 20.5265 5.94241L15.2804 11.1886C14.936 11.5334 14.5091 11.7059 14 11.7059C13.4908 11.7059 13.0638 11.5334 12.7189 11.1886L10.2208 8.69049C10.1631 8.63279 10.0894 8.60394 9.99964 8.60394C9.90989 8.60394 9.83616 8.63279 9.77846 8.69049L4.52654 13.9424C4.37784 14.0911 4.19964 14.1645 3.99194 14.1626C3.78425 14.1607 3.60605 14.0821 3.45734 13.927C3.31889 13.7783 3.25276 13.6013 3.25896 13.396C3.26514 13.1908 3.3364 13.0197 3.47274 12.8828Z" fill="white"/>
</svg>
