<?xml version="1.0" standalone="no"?>
<!DOCTYPE svg PUBLIC "-//W3C//DTD SVG 20010904//EN"
 "http://www.w3.org/TR/2001/REC-SVG-20010904/DTD/svg10.dtd">
<svg version="1.0" xmlns="http://www.w3.org/2000/svg"
 width="456.000000pt" height="547.000000pt" viewBox="0 0 456.000000 547.000000"
 preserveAspectRatio="xMidYMid meet">

<g transform="translate(0.000000,547.000000) scale(0.100000,-0.100000)"
fill="#000000" stroke="none">
<path d="M1943 5341 c-18 -8 -22 -22 -30 -88 -10 -97 -10 -970 1 -1036 5 -32
14 -52 29 -61 55 -35 777 -59 1101 -36 100 6 186 16 192 21 16 13 31 111 34
234 4 125 -11 857 -18 880 -7 27 -14 31 -68 42 -149 29 -408 45 -809 49 -244
2 -419 0 -432 -5z m387 -251 c0 -5 -4 -10 -10 -10 -5 0 -10 5 -10 10 0 6 5 10
10 10 6 0 10 -4 10 -10z m40 0 c0 -5 -5 -10 -11 -10 -5 0 -7 5 -4 10 3 6 8 10
11 10 2 0 4 -4 4 -10z m60 0 c0 -5 -4 -10 -10 -10 -5 0 -10 5 -10 10 0 6 5 10
10 10 6 0 10 -4 10 -10z m110 -4 c0 -3 -4 -8 -10 -11 -5 -3 -10 -1 -10 4 0 6
5 11 10 11 6 0 10 -2 10 -4z m95 -6 c3 -5 1 -10 -4 -10 -6 0 -11 5 -11 10 0 6
2 10 4 10 3 0 8 -4 11 -10z m-388 -36 c-3 -3 -12 -4 -19 -1 -8 3 -5 6 6 6 11
1 17 -2 13 -5z m13 -74 c0 -5 -5 -10 -11 -10 -5 0 -7 5 -4 10 3 6 8 10 11 10
2 0 4 -4 4 -10z m650 -14 c0 -3 -4 -8 -10 -11 -5 -3 -10 -1 -10 4 0 6 5 11 10
11 6 0 10 -2 10 -4z m-530 -76 c0 -5 -2 -10 -4 -10 -3 0 -8 5 -11 10 -3 6 -1
10 4 10 6 0 11 -4 11 -10z m50 0 c0 -5 -2 -10 -4 -10 -3 0 -8 5 -11 10 -3 6
-1 10 4 10 6 0 11 -4 11 -10z m47 4 c-3 -3 -12 -4 -19 -1 -8 3 -5 6 6 6 11 1
17 -2 13 -5z m-60 -250 c-3 -3 -12 -4 -19 -1 -8 3 -5 6 6 6 11 1 17 -2 13 -5z
m833 -239 c0 -8 -4 -15 -10 -15 -5 0 -10 7 -10 15 0 8 5 15 10 15 6 0 10 -7
10 -15z"/>
<path d="M1485 4553 c-9 -20 -14 -41 -12 -47 2 -6 11 11 20 37 19 56 14 63 -8
10z"/>
<path d="M1461 4474 c0 -11 3 -14 6 -6 3 7 2 16 -1 19 -3 4 -6 -2 -5 -13z"/>
<path d="M1447 4433 c-4 -3 -6 -29 -6 -57 l1 -51 9 54 c9 54 8 67 -4 54z"/>
<path d="M1927 4008 c1 -40 2 -76 2 -80 1 -4 8 -5 16 -2 10 4 15 0 15 -13 0
-12 -8 -19 -21 -20 -12 -1 -26 -6 -31 -11 -5 -5 -30 -7 -56 -5 -32 3 -43 1
-33 -5 20 -14 3 -19 -74 -21 -40 -2 -73 -8 -77 -14 -5 -7 -7 -88 -5 -182 l2
-170 108 -3 c96 -2 107 -5 107 -21 0 -10 6 -24 14 -30 17 -15 116 -27 117 -15
7 46 5 93 -4 109 -15 29 -47 54 -61 49 -30 -11 -43 34 -30 107 5 30 0 42 -35
87 -45 56 -49 64 -26 56 8 -4 15 -2 15 4 0 6 10 8 23 6 12 -2 16 -2 10 2 -25
11 -13 24 23 24 27 0 37 -5 41 -20 6 -21 25 -28 21 -7 -2 9 27 14 107 18 107
7 145 16 212 52 31 17 33 16 43 -3 7 -14 8 -26 0 -39 -5 -11 -10 -26 -10 -33
1 -19 110 102 110 122 0 13 6 16 24 13 19 -4 28 1 40 25 16 31 41 46 58 36 10
-7 38 -66 38 -82 0 -5 -21 -32 -48 -59 -45 -47 -47 -51 -39 -87 5 -20 8 -39 6
-41 -2 -1 -39 -9 -82 -16 -62 -10 -82 -11 -98 -1 -17 11 -21 9 -31 -13 -14
-31 -4 -43 20 -22 21 19 100 16 172 -6 l44 -14 -36 -7 c-20 -4 -47 -15 -60
-26 -23 -20 -23 -20 -4 -35 11 -8 32 -15 46 -15 14 0 34 -6 43 -12 15 -12 14
-17 -7 -61 -40 -82 -67 -99 -156 -97 -64 1 -201 80 -269 154 -14 14 -28 26
-33 26 -15 0 12 -41 60 -92 60 -64 128 -108 167 -108 18 0 49 -7 68 -15 32
-13 117 -17 117 -5 0 3 12 6 27 7 29 1 55 27 47 48 -3 7 2 29 10 50 9 20 13
41 10 46 -3 5 -1 9 3 9 5 0 17 14 26 30 10 17 14 30 9 30 -17 0 -33 61 -21 76
22 27 41 16 37 -20 -3 -30 -2 -32 14 -22 19 11 24 22 32 69 5 27 4 27 -30 21
-19 -3 -34 -2 -34 3 0 14 36 54 46 52 28 -5 34 4 34 45 0 32 7 53 28 79 15 20
38 54 52 76 13 23 28 41 33 41 11 0 8 -15 -33 -150 -26 -86 -33 -129 -39 -240
-5 -117 -9 -140 -29 -172 -13 -21 -21 -38 -18 -38 3 0 16 19 30 43 23 40 38
82 86 246 12 40 23 72 25 70 1 -2 -7 -64 -20 -137 l-22 -132 21 -6 c12 -3 55
-4 96 -2 l75 3 3 104 c2 88 6 109 25 135 12 17 23 39 23 50 1 15 -3 13 -22
-10 -22 -25 -24 -26 -24 -6 0 11 4 23 9 26 5 3 12 18 15 32 4 15 20 39 37 55
21 19 29 37 30 63 1 20 2 51 3 68 1 24 -4 34 -16 36 -14 3 -18 -3 -18 -22 0
-14 -4 -26 -10 -26 -5 0 -11 -26 -11 -57 -2 -48 -3 -52 -8 -23 -7 40 -30 80
-47 80 -6 0 -17 7 -24 15 -7 8 -16 12 -21 9 -5 -3 -19 -2 -32 2 -21 7 -21 7
-2 15 11 5 -115 7 -280 5 -374 -5 -545 -23 -658 -71 -17 -7 -18 -3 -16 35 2
24 -1 45 -6 47 -7 2 -10 -25 -8 -69z m101 -80 c18 -18 15 -25 -12 -30 -28 -6
-45 20 -24 34 17 10 22 10 36 -4z m622 -22 c0 -13 -10 -31 -22 -42 -21 -19
-21 -19 -13 1 4 11 10 32 13 47 5 32 22 27 22 -6z m-83 -140 c-4 -9 -11 -16
-17 -16 -11 0 -14 33 -3 44 11 10 26 -11 20 -28z m-810 -18 c-3 -8 -6 -5 -6 6
-1 11 2 17 5 13 3 -3 4 -12 1 -19z m61 -160 l-3 -63 -37 -3 -38 -3 0 65 0 66
40 0 41 0 -3 -62z"/>
<path d="M1815 3981 c46 -29 69 -30 73 -3 3 20 0 22 -50 22 l-53 0 30 -19z"/>
<path d="M2461 3877 c-14 -18 -4 -27 30 -27 35 0 46 16 20 29 -26 14 -36 14
-50 -2z"/>
<path d="M1976 3768 c8 -27 55 -100 61 -95 5 6 -51 116 -60 116 -5 1 -5 -9 -1
-21z"/>
<path d="M2620 3470 c-14 -10 -22 -22 -18 -25 11 -11 68 6 68 20 0 22 -25 24
-50 5z"/>
<path d="M2690 3410 c-25 -14 -178 -60 -200 -60 -13 0 -18 -4 -14 -11 17 -28
179 17 218 60 20 23 20 25 -4 11z"/>
<path d="M2746 2547 c3 -57 1 -68 -11 -63 -8 3 -15 1 -15 -4 0 -6 6 -10 14
-10 8 0 13 -8 11 -17 -1 -12 -10 -17 -26 -15 -13 1 -69 4 -124 7 l-100 4 60
-12 60 -13 -90 -7 c-49 -3 -175 -12 -280 -18 -104 -6 -233 -14 -285 -19 l-95
-7 108 -2 c82 -1 109 -4 113 -15 10 -25 42 -26 48 -1 5 21 11 22 148 29 203 9
471 36 486 48 6 6 12 17 12 24 0 11 21 14 88 16 l87 2 -85 3 c-47 2 -89 8 -94
13 -5 5 -14 35 -21 67 l-13 58 4 -68z"/>
<path d="M3487 2539 c-10 -105 -48 -273 -83 -363 -59 -151 -72 -187 -99 -277
l-26 -86 29 -74 c43 -107 43 -107 36 -69 -3 19 -7 60 -10 90 l-4 55 17 -47
c10 -26 21 -50 26 -54 4 -4 7 -16 7 -28 0 -15 3 -17 12 -8 17 17 28 15 29 -5
0 -11 3 -13 6 -5 2 6 8 10 12 8 9 -6 35 90 28 101 -3 4 1 14 9 21 12 11 14 10
14 -5 1 -17 1 -17 14 0 11 14 15 15 19 5 4 -10 6 -10 6 0 1 17 31 15 31 -3 0
-21 32 -86 52 -107 10 -10 20 -30 24 -45 4 -16 10 -32 14 -38 3 -5 15 -37 25
-70 11 -33 28 -70 38 -82 11 -12 16 -26 13 -31 -3 -6 -1 -12 5 -14 7 -2 13
-19 16 -38 2 -19 7 -36 11 -39 4 -4 8 -25 10 -48 2 -42 -15 -73 -43 -73 -8 0
-17 -9 -20 -20 -3 -11 -11 -20 -16 -20 -6 0 -9 -12 -7 -27 6 -56 151 -103 181
-59 5 8 10 7 16 -4 9 -12 12 -12 29 3 12 11 22 13 28 7 7 -7 11 -6 11 4 0 8
-3 13 -7 11 -12 -7 -50 25 -50 42 0 9 -3 13 -7 10 -5 -6 -25 28 -38 63 -13 36
-37 80 -44 80 -5 0 -11 10 -14 23 -3 12 -21 67 -41 122 -23 64 -35 119 -36
152 0 51 15 101 35 115 6 5 5 8 -3 8 -7 0 -12 8 -11 18 1 9 0 20 -1 25 -4 13
-7 27 -9 40 -1 8 -4 7 -11 -3 -8 -12 -10 -9 -10 12 0 14 -16 64 -35 109 -19
46 -35 91 -35 99 0 9 -4 20 -9 26 -12 12 -42 175 -43 228 0 23 -7 55 -15 73
-13 28 -17 31 -34 20 -10 -6 -19 -20 -19 -31 0 -11 -3 -16 -7 -13 -9 9 -4 110
6 120 10 10 2 128 -9 141 -4 4 -10 -16 -13 -45z"/>
<path d="M3088 2463 c6 -2 18 -2 25 0 6 3 1 5 -13 5 -14 0 -19 -2 -12 -5z"/>
<path d="M3358 2453 c17 -2 47 -2 65 0 17 2 3 4 -33 4 -36 0 -50 -2 -32 -4z"/>
<path d="M1748 2363 c12 -2 30 -2 40 0 9 3 -1 5 -23 4 -22 0 -30 -2 -17 -4z"/>
<path d="M1192 1892 c-12 -26 -29 -70 -39 -99 -17 -50 -17 -52 1 -72 27 -29
40 -26 31 7 -13 47 -15 82 -5 82 13 0 32 -38 25 -51 -4 -5 -1 -17 7 -26 11
-14 14 -11 21 28 12 64 5 163 -13 174 -4 2 -16 -17 -28 -43z"/>
<path d="M2618 1713 c6 -2 18 -2 25 0 6 3 1 5 -13 5 -14 0 -19 -2 -12 -5z"/>
<path d="M2790 1699 c0 -5 5 -7 10 -4 6 3 10 8 10 11 0 2 -4 4 -10 4 -5 0 -10
-5 -10 -11z"/>
<path d="M2837 1608 c6 -107 6 -107 -18 -112 -33 -7 -237 -24 -404 -33 l-140
-8 205 -6 c113 -3 245 -2 294 2 78 5 91 9 107 30 10 13 19 32 19 41 0 23 7 26
77 32 34 2 70 9 80 15 13 8 -2 9 -57 5 -99 -8 -126 3 -135 53 -3 21 -12 49
-20 63 -11 21 -12 11 -8 -82z"/>
<path d="M2755 1619 c-9 -14 -2 -20 14 -10 8 6 9 11 3 15 -6 3 -14 1 -17 -5z"/>
<path d="M2731 1594 c0 -11 3 -14 6 -6 3 7 2 16 -1 19 -3 4 -6 -2 -5 -13z"/>
<path d="M2810 1541 c0 -5 -8 -12 -17 -14 -14 -4 -12 -5 5 -6 13 -1 22 5 22
14 0 8 -2 15 -5 15 -3 0 -5 -4 -5 -9z"/>
<path d="M2048 1443 c71 -4 74 -5 86 -35 9 -20 16 -27 21 -18 5 8 10 9 14 2 4
-6 11 5 17 24 l11 34 -111 -2 c-88 -2 -96 -3 -38 -5z"/>
<path d="M3300 1258 c0 -7 5 -20 10 -28 8 -12 10 -9 10 13 0 15 -4 27 -10 27
-5 0 -10 -6 -10 -12z"/>
<path d="M3336 1255 c4 -8 8 -15 10 -15 2 0 4 7 4 15 0 8 -4 15 -10 15 -5 0
-7 -7 -4 -15z"/>
<path d="M3364 1225 c0 -19 6 -37 13 -39 7 -3 13 -18 13 -34 0 -15 11 -43 25
-62 14 -19 23 -40 21 -47 -3 -7 -1 -15 4 -18 16 -10 11 -25 -7 -25 -9 0 -13
-3 -9 -7 4 -5 13 -8 19 -8 7 0 11 -13 9 -31 -1 -16 1 -41 6 -53 8 -23 9 -23
22 8 12 29 10 43 -15 130 -27 98 -28 99 -9 130 16 28 17 33 4 42 -8 5 -26 8
-40 7 -14 -1 -25 2 -25 7 0 6 6 9 15 7 10 -2 8 1 -5 12 -31 24 -41 19 -41 -19z"/>
<path d="M3466 1165 c-17 -25 -16 -31 13 -127 28 -97 29 -102 14 -140 -17 -43
-12 -58 12 -38 9 7 13 21 10 31 -4 10 -1 27 4 38 8 14 4 39 -14 102 -14 45
-25 92 -24 103 0 12 7 -7 15 -41 13 -54 19 -63 45 -72 18 -6 28 -15 24 -21 -5
-8 -14 -5 -27 7 -20 18 -21 18 -12 -7 4 -14 8 -38 7 -55 -1 -16 -2 -40 -3 -53
0 -13 -4 -32 -10 -42 -7 -14 -5 -19 10 -23 26 -7 34 7 18 34 -10 16 -10 23 -2
26 8 2 10 18 7 43 -5 33 -3 40 11 40 18 0 22 -16 4 -22 -8 -3 -7 -18 5 -53 10
-27 16 -58 16 -69 -1 -18 -2 -19 -6 -3 -5 18 -6 17 -20 -2 -13 -20 -13 -23 9
-40 13 -11 19 -23 15 -28 -5 -4 -19 3 -31 17 -21 24 -46 37 -46 24 0 -4 24
-30 53 -58 50 -48 98 -138 83 -153 -10 -11 -45 38 -52 73 -6 35 -34 69 -34 43
0 -40 24 -90 59 -122 36 -33 39 -34 44 -16 3 11 -1 39 -9 62 -25 71 3 137 58
137 9 0 21 8 27 18 11 22 11 72 -1 72 -5 0 -6 -5 -2 -12 5 -8 2 -9 -9 -5 -13
5 -17 1 -17 -14 0 -12 -5 -19 -12 -17 -15 5 -57 80 -51 91 8 14 23 7 23 -12 0
-26 10 -51 21 -51 5 0 9 7 9 15 0 9 9 15 21 15 14 0 19 5 17 18 -3 12 -12 16
-33 15 -28 -2 -28 -2 -7 13 18 12 19 18 10 44 -5 17 -14 30 -20 30 -5 0 -7 4
-4 9 8 13 -42 71 -60 71 -9 0 -13 4 -10 9 4 5 -9 21 -26 36 -18 14 -42 34 -53
43 -51 44 -51 44 -69 17z m102 -116 c-17 -10 -28 -2 -21 17 4 11 8 12 20 3 11
-10 11 -14 1 -20z m40 -24 c-8 -18 -15 -22 -22 -15 -7 7 -4 15 10 25 25 19 25
19 12 -10z m57 -35 c-3 -5 -10 -10 -16 -10 -5 0 -9 5 -9 10 0 6 7 10 16 10 8
0 12 -4 9 -10z m-38 -30 c16 -12 34 -18 45 -15 10 4 18 2 18 -4 0 -6 -7 -11
-15 -11 -19 0 -84 33 -85 43 0 12 10 8 37 -13z m-1 -109 c19 -56 19 -60 3 -80
-10 -12 -19 -27 -22 -34 -2 -6 -8 -9 -12 -5 -4 4 0 19 9 33 18 27 15 98 -5
111 -11 6 -12 34 -1 34 4 0 16 -26 28 -59z"/>
<path d="M3314 1167 c-8 -22 -1 -30 21 -25 14 3 14 5 1 23 -14 19 -15 19 -22
2z"/>
<path d="M3337 1112 c-12 -2 -16 -9 -13 -19 3 -8 6 -17 6 -19 0 -2 9 -4 20 -4
21 0 23 5 12 30 -4 9 -15 14 -25 12z"/>
<path d="M3357 1036 c-3 -8 1 -17 9 -20 9 -4 14 1 14 14 0 23 -15 27 -23 6z"/>
<path d="M3130 985 c-7 -9 -11 -18 -8 -20 3 -3 11 1 18 10 7 9 11 18 8 20 -3
3 -11 -1 -18 -10z"/>
<path d="M3360 985 c0 -8 6 -15 14 -15 8 0 18 -9 21 -21 4 -11 9 -19 11 -16 3
2 0 15 -5 29 -11 29 -41 45 -41 23z"/>
<path d="M916 965 c-29 -31 -37 -89 -11 -79 8 4 15 12 15 20 0 8 4 14 10 14 5
0 7 7 4 15 -4 8 -1 22 6 30 23 28 1 28 -24 0z"/>
<path d="M2838 808 l-3 -133 -70 -12 c-38 -7 -128 -16 -200 -20 l-130 -8 85
-6 c47 -4 140 -8 206 -10 133 -3 172 9 176 54 0 12 2 28 2 35 1 8 12 20 26 27
l25 14 -27 1 c-16 0 -29 6 -29 13 -5 58 -11 81 -24 100 -8 12 -15 31 -15 44 0
12 -4 25 -10 28 -6 4 -10 -44 -12 -127z"/>
<path d="M3397 913 c-11 -10 -8 -20 8 -27 10 -4 15 1 15 14 0 20 -11 26 -23
13z"/>
<path d="M857 883 c-4 -3 -7 -15 -7 -25 0 -11 -4 -17 -9 -14 -17 11 -66 -67
-95 -149 -38 -113 -61 -375 -32 -375 8 0 8 -2 0 -8 -21 -14 -26 -63 -9 -88 15
-23 58 -33 68 -16 12 19 11 66 -2 70 -9 3 -11 -1 -7 -15 8 -24 -2 -55 -15 -47
-6 3 -7 14 -4 24 3 9 1 29 -4 44 -7 18 -7 26 0 26 6 0 9 10 7 22 -2 11 3 23
10 26 10 3 13 -4 10 -24 -2 -21 2 -30 15 -32 16 -3 17 3 11 65 -4 37 -8 70
-10 72 -3 4 -5 -2 -19 -44 -5 -16 -45 -21 -45 -6 0 5 8 7 19 4 15 -4 19 3 24
39 10 69 12 76 35 101 26 28 28 37 6 37 -11 0 -14 6 -9 20 5 14 2 20 -9 20 -9
0 -16 5 -16 10 0 6 7 10 16 10 10 0 14 6 11 14 -3 8 0 20 8 26 7 6 12 20 10
31 -3 16 0 19 17 13 17 -5 20 -3 15 11 -4 9 -7 19 -7 21 0 2 -7 4 -15 4 -16 0
-20 12 -8 23 3 4 12 2 19 -4 14 -11 14 -12 33 79 8 39 4 52 -12 35z m-17 -73
c0 -5 -4 -10 -10 -10 -5 0 -10 5 -10 10 0 6 5 10 10 10 6 0 10 -4 10 -10z
m-70 -240 c0 -5 -2 -10 -4 -10 -3 0 -8 5 -11 10 -3 6 -1 10 4 10 6 0 11 -4 11
-10z m-10 -40 c0 -5 -4 -10 -10 -10 -5 0 -10 5 -10 10 0 6 5 10 10 10 6 0 10
-4 10 -10z m-14 -87 c-11 -11 -17 4 -9 23 7 18 8 18 11 1 2 -10 1 -21 -2 -24z"/>
<path d="M2628 883 c12 -2 30 -2 40 0 9 3 -1 5 -23 4 -22 0 -30 -2 -17 -4z"/>
<path d="M2792 850 c0 -19 2 -27 5 -17 2 9 2 25 0 35 -3 9 -5 1 -5 -18z"/>
<path d="M3408 863 c7 -3 16 -2 19 1 4 3 -2 6 -13 5 -11 0 -14 -3 -6 -6z"/>
<path d="M890 845 c0 -8 7 -15 15 -15 9 0 12 6 9 15 -4 8 -10 15 -15 15 -5 0
-9 -7 -9 -15z"/>
<path d="M3410 835 c0 -27 25 -95 35 -95 16 0 -6 92 -23 98 -7 2 -12 1 -12 -3z"/>
<path d="M2765 790 c-17 -18 -17 -20 -1 -20 9 0 19 7 23 15 9 25 -2 27 -22 5z"/>
<path d="M2724 769 c-3 -6 -1 -16 5 -22 8 -8 11 -5 11 11 0 24 -5 28 -16 11z"/>
<path d="M3751 773 c-1 -6 -16 -17 -35 -24 -21 -8 -39 -24 -48 -43 -13 -27
-13 -35 4 -80 15 -40 17 -55 8 -74 -13 -30 -8 -37 19 -23 15 9 18 16 12 33 -4
12 -4 39 0 61 7 39 21 57 47 57 6 0 12 6 12 14 0 12 -7 13 -31 6 -17 -5 -37
-14 -44 -20 -9 -8 -15 -8 -20 0 -11 17 3 28 45 35 47 8 53 15 41 47 -6 12 -10
18 -10 11z"/>
<path d="M870 751 c0 -12 5 -21 10 -21 6 0 10 6 10 14 0 8 -4 18 -10 21 -5 3
-10 -3 -10 -14z"/>
<path d="M3500 751 c0 -13 29 -35 37 -28 7 8 -15 37 -28 37 -5 0 -9 -4 -9 -9z"/>
<path d="M2810 704 c0 -8 5 -12 10 -9 6 4 8 11 5 16 -9 14 -15 11 -15 -7z"/>
<path d="M3450 701 c0 -12 5 -21 10 -21 6 0 10 6 10 14 0 8 -4 18 -10 21 -5 3
-10 -3 -10 -14z"/>
<path d="M3534 656 c11 -25 22 -43 23 -42 7 7 -23 80 -33 83 -6 2 -2 -16 10
-41z"/>
<path d="M826 655 c4 -8 10 -12 15 -9 11 6 2 24 -11 24 -5 0 -7 -7 -4 -15z"/>
<path d="M3746 657 c-14 -11 -17 -23 -13 -58 2 -24 8 -54 12 -66 6 -18 3 -22
-22 -25 -24 -3 -28 -7 -25 -30 1 -16 -2 -28 -8 -28 -5 0 -10 -9 -10 -20 0 -11
7 -20 16 -20 8 0 12 4 9 10 -3 6 1 7 9 4 9 -3 16 -1 16 5 0 6 9 11 20 11 35 0
25 -36 -12 -45 -64 -15 -78 -14 -88 6 -6 10 -16 19 -23 19 -7 0 -6 -4 3 -10 8
-5 11 -10 7 -10 -18 0 21 -28 44 -32 33 -4 29 -22 -7 -28 -20 -4 -25 -8 -16
-14 7 -4 16 -5 19 -2 4 3 17 -1 30 -9 17 -12 23 -12 23 -3 0 8 3 9 8 3 11 -16
29 -15 29 1 0 8 -6 14 -14 14 -7 0 -13 5 -13 11 0 5 -5 7 -12 3 -7 -5 -8 -3
-3 5 5 9 10 10 18 2 18 -18 27 -13 27 13 0 14 7 32 16 40 9 10 13 25 10 38 -3
13 -3 17 0 10 3 -6 10 -10 15 -6 15 9 10 41 -7 48 -10 4 -13 13 -9 26 3 11 3
40 -1 65 -6 41 -8 44 -19 28 -13 -17 -14 -17 -21 1 -5 12 -2 21 9 28 18 9 23
28 9 28 -5 0 -16 -6 -26 -13z"/>
<path d="M870 649 c0 -5 5 -7 10 -4 6 3 10 8 10 11 0 2 -4 4 -10 4 -5 0 -10
-5 -10 -11z"/>
<path d="M3471 645 c0 -11 7 -36 14 -55 l13 -35 1 30 c0 17 -6 41 -14 55 -13
22 -14 23 -14 5z"/>
<path d="M2150 610 c13 -24 45 -26 54 -4 9 24 9 24 -29 24 -33 0 -35 -2 -25
-20z"/>
<path d="M815 600 c3 -5 8 -10 11 -10 2 0 4 5 4 10 0 6 -5 10 -11 10 -5 0 -7
-4 -4 -10z"/>
<path d="M3564 563 c15 -50 33 -80 42 -70 4 4 -1 16 -11 27 -18 20 -17 20 11
20 27 1 27 1 9 12 -11 6 -27 20 -36 30 -24 27 -28 22 -15 -19z"/>
<path d="M800 515 c-7 -8 -8 -15 -2 -15 5 0 15 7 22 15 7 8 8 15 2 15 -5 0
-15 -7 -22 -15z"/>
<path d="M3525 463 c14 -37 28 -69 32 -72 5 -6 2 8 -19 79 -6 19 -12 41 -14
48 -2 6 -8 12 -14 12 -5 0 2 -30 15 -67z"/>
<path d="M3633 493 c5 -47 37 -93 37 -54 0 12 -6 21 -12 21 -9 0 -8 4 2 10 10
7 12 12 4 18 -6 4 -16 16 -23 27 -11 17 -12 14 -8 -22z"/>
<path d="M786 475 c-6 -17 17 -31 34 -20 5 3 10 13 10 21 0 19 -36 18 -44 -1z"/>
<path d="M3596 472 c-3 -5 1 -18 9 -28 14 -18 15 -18 12 3 -4 27 -13 38 -21
25z"/>
<path d="M809 418 c-6 -21 -5 -39 2 -44 5 -3 9 6 9 20 0 21 -7 36 -11 24z"/>
<path d="M3831 393 c0 -17 -7 -34 -13 -36 -10 -4 -9 -8 2 -16 31 -22 36 -9 20
54 l-8 30 -1 -32z"/>
<path d="M827 294 c-4 -4 -7 -17 -7 -28 1 -19 1 -20 11 -3 11 19 8 43 -4 31z"/>
<path d="M3848 293 c7 -3 16 -2 19 1 4 3 -2 6 -13 5 -11 0 -14 -3 -6 -6z"/>
<path d="M3790 270 c0 -5 5 -10 11 -10 5 0 7 5 4 10 -3 6 -8 10 -11 10 -2 0
-4 -4 -4 -10z"/>
<path d="M3730 256 c0 -9 5 -16 10 -16 6 0 10 4 10 9 0 6 -4 13 -10 16 -5 3
-10 -1 -10 -9z"/>
<path d="M3646 237 c3 -10 9 -15 12 -12 3 3 0 11 -7 18 -10 9 -11 8 -5 -6z"/>
<path d="M821 224 c0 -11 3 -14 6 -6 3 7 2 16 -1 19 -3 4 -6 -2 -5 -13z"/>
<path d="M3735 209 c9 -30 24 -49 39 -49 6 0 3 7 -8 15 -10 7 -16 17 -13 22 3
4 -2 14 -10 22 -13 12 -14 11 -8 -10z"/>
<path d="M692 182 c-1 -20 -6 -61 -12 -91 -14 -75 -13 -91 8 -91 15 0 17 8 16
56 -2 60 4 64 17 12 8 -32 8 -32 5 7 -3 22 -6 48 -8 59 -2 12 4 20 15 22 19 3
34 12 26 17 -2 1 -18 12 -35 24 l-32 22 0 -37z"/>
<path d="M795 209 c-4 -6 -5 -12 -2 -15 2 -3 7 2 10 11 7 17 1 20 -8 4z"/>
<path d="M787 163 c-4 -3 -7 -11 -7 -17 0 -6 5 -5 12 2 6 6 9 14 7 17 -3 3 -9
2 -12 -2z"/>
<path d="M3786 99 c4 -19 13 -45 21 -59 9 -15 12 -17 7 -5 -3 11 -10 35 -14
53 -11 45 -22 54 -14 11z"/>
<path d="M764 93 c-4 -16 -12 -34 -18 -42 -8 -10 -5 -17 9 -28 16 -13 16 -14
3 -10 -10 3 -20 2 -23 -3 -4 -6 9 -10 29 -10 39 0 48 18 21 40 -14 12 -11 35
4 26 4 -3 5 8 3 25 -5 37 -20 38 -28 2z"/>
</g>
</svg>
