<svg width="15" height="16" viewBox="0 0 15 16" fill="none" xmlns="http://www.w3.org/2000/svg">
<path d="M4.354 15.1706C3.98702 14.8802 3.97425 14.646 4.33421 14.3186C4.96861 13.741 5.3241 13.0102 5.55896 12.1735C5.03498 12.1735 4.53653 12.1818 4.03744 12.1716C2.79609 12.1467 1.60644 11.1574 1.36328 9.93652C1.65048 9.98056 1.93066 10.015 2.20637 10.0737C2.26956 10.0871 2.327 10.1771 2.36784 10.2435C2.80822 10.9679 3.45027 11.3291 4.29783 11.3259C4.87223 11.324 5.44664 11.3234 6.02104 11.3266C6.46843 11.3291 6.6465 11.5461 6.51311 11.9801C6.33121 12.5737 6.11358 13.157 5.9036 13.7684C5.97955 13.7403 6.05678 13.7205 6.12634 13.6848C7.09389 13.187 7.93507 12.5277 8.60329 11.6667C8.79986 11.4134 9.01686 11.3132 9.33342 11.3196C9.91739 11.3304 10.5039 11.3349 11.0847 11.2851C11.7331 11.2296 12.2131 10.853 12.5347 10.3067C12.6681 10.0801 12.8047 9.98695 13.0555 10.0144C13.2119 10.0316 13.3708 10.0176 13.577 10.0176C13.531 10.1708 13.5106 10.2946 13.4583 10.4037C12.9228 11.5161 12.0503 12.1314 10.8026 12.1729C10.3667 12.1875 9.93016 12.1671 9.49425 12.1812C9.39341 12.1843 9.26193 12.2341 9.20003 12.3088C8.03272 13.7103 6.54885 14.609 4.8065 15.1036C4.75927 15.117 4.71715 15.1483 4.67247 15.1712C4.56653 15.1706 4.45994 15.1706 4.354 15.1706Z" fill="#D9DEE8"/>
<path d="M11.1194 0.166016C11.7155 0.298766 12.274 0.501722 12.7341 0.930608C13.3602 1.51331 13.7304 2.35384 13.6513 3.08908C13.3921 3.08908 13.1311 3.08908 12.8771 3.08908C12.8126 2.82613 12.7871 2.55489 12.6818 2.32002C12.3027 1.47565 11.6402 1.0206 10.7065 1.01741C8.54866 1.00911 6.39019 1.01294 4.23236 1.01613C3.68093 1.01677 3.17801 1.17888 2.79061 1.58415C2.59851 1.78519 2.40832 1.92177 2.11665 1.92241C1.91944 1.92304 1.72286 1.98687 1.44141 2.03729C1.58947 1.782 1.68649 1.56628 1.82562 1.38247C2.3062 0.749352 2.92464 0.330677 3.72688 0.215797C3.76645 0.210053 3.80347 0.183885 3.84113 0.167291C6.26765 0.166015 8.69354 0.166016 11.1194 0.166016Z" fill="#D9DEE8"/>
<path d="M4.44465 7.47605C4.65462 7.60561 4.83333 7.71538 5.03564 7.84047C4.92268 8.06896 4.81227 8.2917 4.69675 8.52465C4.35019 8.33829 4.03938 8.07151 3.69282 8.01152C3.33605 7.94961 2.94418 8.13023 2.56763 8.13214C1.63391 8.13789 0.904424 7.60178 0.658708 6.77975C0.35619 5.7688 0.665088 4.68254 1.37096 4.18026C2.14321 3.63075 4.04257 3.60012 4.61633 4.77764C5.01203 5.5901 4.98905 6.41532 4.5908 7.22778C4.55315 7.30373 4.50528 7.37329 4.44465 7.47605ZM2.98376 7.13651C2.77506 7.00823 2.63465 6.92207 2.47509 6.82378C2.53828 6.67699 2.59827 6.53786 2.67932 6.35086C2.96078 6.50467 3.20267 6.63742 3.46689 6.7823C3.63474 6.30555 3.64815 5.84602 3.52625 5.38714C3.42349 4.99974 3.12863 4.79104 2.72847 4.78466C2.35766 4.77892 2.01238 4.97804 1.9409 5.3514C1.86878 5.72795 1.85219 6.13386 1.9109 6.51169C1.99004 7.02482 2.35702 7.2265 2.98376 7.13651Z" fill="#D9DEE8"/>
<path d="M6.66092 5.07324C6.66092 5.58637 6.659 6.07461 6.66219 6.56286C6.66283 6.67901 6.64368 6.81623 6.69729 6.90558C6.7758 7.03578 6.90791 7.21576 7.02343 7.2215C7.16767 7.22789 7.35466 7.10726 7.4555 6.98536C7.53656 6.88707 7.53592 6.70518 7.53847 6.5603C7.54741 6.07334 7.54166 5.58573 7.54166 5.07452C7.93034 5.07452 8.29477 5.07452 8.68089 5.07452C8.68089 6.06504 8.68089 7.0562 8.68089 8.06332C8.33179 8.06332 7.99672 8.06332 7.63867 8.06332C7.62974 7.93057 7.6208 7.80803 7.6074 7.6038C7.29467 7.97716 6.94429 8.15841 6.50455 8.14565C5.97802 8.13033 5.59572 7.8693 5.55998 7.34978C5.50892 6.60179 5.54658 5.84805 5.54658 5.07388C5.89058 5.07324 6.25564 5.07324 6.66092 5.07324Z" fill="#D9DEE8"/>
<path d="M12.5888 5.84102C12.1057 5.84102 11.6972 5.84102 11.2677 5.84102C11.2677 5.57744 11.2677 5.33938 11.2677 5.07324C12.1823 5.07324 13.0987 5.07324 14.035 5.07324C14.088 5.42299 14.1059 5.74912 13.7682 6.02483C13.3349 6.37969 12.9379 6.77921 12.5256 7.1596C12.5505 7.19916 12.5754 7.2381 12.6003 7.27767C13.1019 7.27767 13.6036 7.27767 14.1244 7.27767C14.1244 7.55721 14.1244 7.7959 14.1244 8.05502C13.1383 8.05502 12.1555 8.05502 11.1515 8.05502C11.1081 7.67336 11.0558 7.31724 11.4253 7.0077C11.8274 6.67199 12.1708 6.26672 12.5888 5.84102Z" fill="#D9DEE8"/>
<path d="M9.48242 5.07324C9.86855 5.07324 10.2259 5.07324 10.6006 5.07324C10.6006 6.07206 10.6006 7.05556 10.6006 8.06268C10.2362 8.06268 9.87046 8.06268 9.48242 8.06268C9.48242 7.07918 9.48242 6.08802 9.48242 5.07324Z" fill="#D9DEE8"/>
<path d="M10.6011 4.65481C10.2188 4.65481 9.85439 4.65481 9.47656 4.65481C9.47656 4.39697 9.47656 4.15891 9.47656 3.90234C9.85694 3.90234 10.222 3.90234 10.6011 3.90234C10.6011 4.16019 10.6011 4.39888 10.6011 4.65481Z" fill="#D9DEE8"/>
</svg>
