<svg width="12" height="12" viewBox="0 0 12 12" fill="none" xmlns="http://www.w3.org/2000/svg">
<path d="M11.2192 2.68796C11.0564 1.95131 10.7346 1.29846 10.1486 0.799279C9.51027 0.255677 8.76818 0.073435 7.94925 0.212937C7.42778 0.301777 6.95762 0.526037 6.53756 0.843938C6.28995 1.03122 6.05993 1.24156 5.81618 1.44661C5.4915 1.10518 5.12683 0.804801 4.70436 0.576699C4.14315 0.274164 3.54726 0.123617 2.91018 0.208135C2.15989 0.307779 1.55268 0.675384 1.10372 1.27709C0.386188 2.23896 0.210841 3.32905 0.411238 4.48876C0.516253 5.09647 0.765064 5.65616 1.06373 6.19352C1.56569 7.09681 2.21192 7.893 2.9215 8.63877C3.78716 9.54878 4.72459 10.3803 5.73717 11.1263C5.80871 11.1791 5.85544 11.1844 5.92746 11.1268C6.15531 10.945 6.39473 10.7776 6.62042 10.5935C7.5788 9.81098 8.483 8.97228 9.28964 8.03202C9.82797 7.40462 10.3167 6.74385 10.7006 6.01104C10.9969 5.44559 11.2197 4.85349 11.3013 4.21576C11.3671 3.70169 11.3305 3.19123 11.2192 2.68796ZM6.44603 1.80149C6.84538 1.43028 7.3047 1.15824 7.84905 1.06028C8.62559 0.920773 9.27808 1.15704 9.79545 1.74554C10.2117 2.21879 10.3979 2.78953 10.4742 3.40588C10.5833 4.28515 10.3345 5.08039 9.926 5.84177C9.55002 6.5424 9.06781 7.16644 8.54225 7.76022C7.88229 8.50527 7.15248 9.17685 6.38871 9.81338C6.22974 9.94592 6.06691 10.0741 5.90891 10.2076C5.85568 10.2528 5.81835 10.2566 5.76054 10.2098C4.9828 9.57951 4.22264 8.93026 3.5316 8.20466C2.82636 7.46393 2.17844 6.67926 1.70033 5.76901C1.43249 5.25927 1.21981 4.72551 1.18055 4.14733C1.12058 3.26134 1.28243 2.42552 1.88363 1.73017C2.4417 1.08477 3.28279 0.851862 4.14219 1.14623C4.74506 1.35273 5.21378 1.74434 5.62638 2.21375C5.69334 2.28962 5.75861 2.36694 5.82292 2.44185C6.0356 2.22191 6.23094 2.00125 6.44603 1.80149Z" fill="#D9DEE8"/>
</svg>
