<svg width="19" height="19" viewBox="0 0 19 19" fill="none" xmlns="http://www.w3.org/2000/svg">
<path fill-rule="evenodd" clip-rule="evenodd" d="M9.33477 7.41797C8.09212 7.41797 7.08477 8.42533 7.08477 9.66797C7.08477 10.9106 8.09212 11.918 9.33477 11.918C10.5774 11.918 11.5848 10.9106 11.5848 9.66797C11.5848 8.42533 10.5774 7.41797 9.33477 7.41797ZM7.98477 9.66797C7.98477 8.92238 8.58918 8.31797 9.33477 8.31797C10.0804 8.31797 10.6848 8.92238 10.6848 9.66797C10.6848 10.4136 10.0804 11.018 9.33477 11.018C8.58918 11.018 7.98477 10.4136 7.98477 9.66797Z" fill="#D9DEE8"/>
<path fill-rule="evenodd" clip-rule="evenodd" d="M9.33477 4.41797C6.62629 4.41797 4.80194 6.04049 3.74311 7.41609L3.72401 7.44089C3.48455 7.75189 3.264 8.03832 3.11438 8.37701C2.95415 8.73969 2.88477 9.13498 2.88477 9.66797C2.88477 10.201 2.95415 10.5962 3.11438 10.9589C3.264 11.2976 3.48455 11.5841 3.72401 11.8951L3.74311 11.9199C4.80194 13.2955 6.62629 14.918 9.33477 14.918C12.0432 14.918 13.8676 13.2955 14.9264 11.9199L14.9455 11.8951C15.185 11.5841 15.4055 11.2976 15.5552 10.9589C15.7154 10.5962 15.7848 10.201 15.7848 9.66797C15.7848 9.13498 15.7154 8.73969 15.5552 8.37701C15.4055 8.03832 15.185 7.75188 14.9455 7.44087L14.9264 7.41609C13.8676 6.04049 12.0432 4.41797 9.33477 4.41797ZM4.4563 7.96505C5.43395 6.69492 7.02498 5.31797 9.33477 5.31797C11.6446 5.31797 13.2356 6.69492 14.2132 7.96505C14.4764 8.30692 14.6305 8.5112 14.7319 8.7407C14.8267 8.95518 14.8848 9.21733 14.8848 9.66797C14.8848 10.1186 14.8267 10.3808 14.7319 10.5952C14.6305 10.8247 14.4764 11.029 14.2132 11.3709C13.2356 12.641 11.6446 14.018 9.33477 14.018C7.02498 14.018 5.43395 12.641 4.4563 11.3709C4.19315 11.029 4.03901 10.8247 3.93762 10.5952C3.84287 10.3808 3.78477 10.1186 3.78477 9.66797C3.78477 9.21733 3.84287 8.95518 3.93762 8.7407C4.03901 8.5112 4.19315 8.30692 4.4563 7.96505Z" fill="#D9DEE8"/>
</svg>
