<?xml version="1.0" encoding="UTF-8"?>
<svg xmlns="http://www.w3.org/2000/svg" xmlns:xlink="http://www.w3.org/1999/xlink" width="50px" height="38px" viewBox="0 0 50 38" version="1.1">
<defs>
<clipPath id="clip1">
  <path d="M 14.46875 9.835938 L 35.289062 9.835938 L 35.289062 28.324219 L 14.46875 28.324219 Z M 14.46875 9.835938 "/>
</clipPath>
</defs>
<g id="surface1">
<path style=" stroke:none;fill-rule:nonzero;fill:rgb(50.980392%,27.843137%,89.803922%);fill-opacity:1;" d="M 24.988281 2.875 C 33.761719 2.875 40.875 10.082031 40.875 18.976562 C 40.875 27.867188 33.761719 35.066406 24.992188 35.066406 C 16.21875 35.066406 9.113281 27.859375 9.113281 18.976562 C 9.105469 10.082031 16.21875 2.875 24.988281 2.875 Z M 24.988281 2.875 "/>
<g clip-path="url(#clip1)" clip-rule="nonzero">
<path style=" stroke:none;fill-rule:nonzero;fill:rgb(100%,100%,100%);fill-opacity:1;" d="M 30.195312 15.464844 C 29.8125 15.246094 29.324219 15.246094 28.894531 15.464844 L 25.855469 17.289062 L 23.792969 18.449219 L 20.8125 20.265625 C 20.429688 20.488281 19.945312 20.488281 19.511719 20.265625 L 17.179688 18.828125 C 16.800781 18.605469 16.53125 18.164062 16.53125 17.671875 L 16.53125 14.910156 C 16.53125 14.464844 16.75 14.027344 17.179688 13.75 L 19.511719 12.367188 C 19.894531 12.148438 20.382812 12.148438 20.8125 12.367188 L 23.144531 13.808594 C 23.523438 14.027344 23.792969 14.472656 23.792969 14.964844 L 23.792969 16.789062 L 25.855469 15.574219 L 25.855469 13.699219 C 25.855469 13.253906 25.636719 12.820312 25.207031 12.539062 L 20.867188 9.941406 C 20.488281 9.722656 20 9.722656 19.570312 9.941406 L 15.125 12.597656 C 14.695312 12.820312 14.476562 13.261719 14.476562 13.699219 L 14.476562 18.886719 C 14.476562 19.328125 14.695312 19.765625 15.125 20.046875 L 19.519531 22.640625 C 19.898438 22.863281 20.386719 22.863281 20.820312 22.640625 L 23.800781 20.875 L 25.863281 19.660156 L 28.84375 17.890625 C 29.226562 17.671875 29.710938 17.671875 30.144531 17.890625 L 32.476562 19.273438 C 32.855469 19.492188 33.125 19.9375 33.125 20.429688 L 33.125 23.191406 C 33.125 23.636719 32.90625 24.074219 32.476562 24.351562 L 30.199219 25.730469 C 29.820312 25.953125 29.332031 25.953125 28.898438 25.730469 L 26.5625 24.351562 C 26.179688 24.128906 25.914062 23.6875 25.914062 23.191406 L 25.914062 21.425781 L 23.851562 22.640625 L 23.851562 24.464844 C 23.851562 24.910156 24.070312 25.347656 24.5 25.625 L 28.894531 28.222656 C 29.273438 28.441406 29.761719 28.441406 30.195312 28.222656 L 34.585938 25.625 C 34.96875 25.402344 35.238281 24.960938 35.238281 24.464844 L 35.238281 19.222656 C 35.238281 18.777344 35.019531 18.339844 34.585938 18.0625 Z M 30.195312 15.464844 "/>
</g>
</g>
</svg>
